<?xml version="1.0" encoding="UTF-8" standalone="no"?>
<svg
   version="1.1"
   viewBox="0 0 469.2691 556.36542"
   id="svg32"
   sodipodi:docname="lion-rank.svg"
   inkscape:version="1.4.3 (0d15f75042, 2025-12-25)"
   width="469.2691"
   height="556.36542"
   xmlns:inkscape="http://www.inkscape.org/namespaces/inkscape"
   xmlns:sodipodi="http://sodipodi.sourceforge.net/DTD/sodipodi-0.dtd"
   xmlns="http://www.w3.org/2000/svg"
   xmlns:svg="http://www.w3.org/2000/svg">
  <defs
     id="defs32" />
  <sodipodi:namedview
     id="namedview32"
     pagecolor="#ffffff"
     bordercolor="#000000"
     borderopacity="0.25"
     inkscape:showpageshadow="2"
     inkscape:pageopacity="0.0"
     inkscape:pagecheckerboard="0"
     inkscape:deskcolor="#d1d1d1"
     inkscape:zoom="0.47734775"
     inkscape:cx="267.10087"
     inkscape:cy="231.48742"
     inkscape:window-width="990"
     inkscape:window-height="568"
     inkscape:window-x="0"
     inkscape:window-y="0"
     inkscape:window-maximized="1"
     inkscape:current-layer="svg32" />
  <g
     stroke-width="2"
     fill="none"
     stroke-linecap="butt"
     id="g18"
     transform="translate(-13.368096,-13.752881)">
    <path
       stroke="#bea693"
       vector-effect="non-scaling-stroke"
       d="m 168.23,44.17 c -12.24,-0.3 -25.59,1.75 -36.65,6.92 q -2.65,1.25 -4.41,1.97 a 1.24,1.24 0 0 1 -1.11,-0.1 C 104.69,39.55 77.43,38.28 54.78,50.05 a 0.43,0.43 0 0 0 -0.1,0.69 l 13,13 a 0.35,0.35 0 0 1 0,0.48 C 51.15,81.03 47.01,106.14 56.81,127.63 a 0.5,0.5 0 0 1 -0.1,0.57 C 34.7,149.58 17.85,180.83 17.46,212.08 a 0.55,0.55 0 0 0 0.61,0.55 l 20.36,-2.31 a 0.41,0.41 0 0 1 0.41,0.59 q -9.04,17.48 -14.47,36.7 -15.24,53.96 -7.26,109.25 a 0.77,0.76 -9.4 0 0 0.9,0.64 l 14.45,-2.59 a 0.74,0.74 0 0 1 0.85,0.56 c 11.62,47.39 34.48,94.19 67.59,130.45 a 0.62,0.62 0 0 0 0.99,-0.11 l 9.51,-16.47 a 0.41,0.41 0 0 1 0.65,-0.08 c 27.97,29.03 64.27,50.08 102.44,62.55 a 0.37,0.37 0 0 1 0.17,0.59 l -15.55,19.05 a 0.46,0.46 0 0 0 0.37,0.75 c 14.65,-0.66 28.3,-3.75 42.55,-7.9 a 0.39,0.39 0 0 1 0.46,0.55 l -11.64,23.52 a 0.52,0.51 -84.6 0 0 0.6,0.73 c 23.27,-6.76 44.17,-18.39 63.19,-33.93 q 17.15,-14.01 29.06,-32.25 a 0.37,0.36 -63.3 0 1 0.43,-0.15 l 23.07,8.3 a 1.01,1 30.7 0 0 1.09,-0.27 q 3.65,-4 7.58,-9.68 18.54,-26.83 25.72,-58.8 a 0.61,0.6 -73.8 0 1 0.79,-0.44 l 17.51,6.3 a 0.93,0.91 29.7 0 0 1.02,-0.27 c 32.57,-38.27 54.23,-86.37 64.16,-135.35 a 0.41,0.4 11 0 1 0.47,-0.31 l 13.73,2.43 a 0.59,0.58 -80.5 0 0 0.68,-0.49 c 6.3,-43.67 -5.15,-93.74 -33.1,-128.08 a 0.28,0.28 0 0 1 0.17,-0.45 l 12.97,-2.33 a 0.57,0.56 82.3 0 0 0.46,-0.61 c -2.26,-23.89 -14.47,-45.82 -33.2,-60.6 a 0.36,0.36 0 0 1 -0.02,-0.55 q 17.56,-16.6 11.55,-40.26 C 438.34,79.6 436.8,76.6 436.1,74.87 a 0.56,0.56 0 0 1 0.24,-0.69 l 20.77,-11.99 a 0.36,0.36 0 0 0 -0.04,-0.64 C 429.61,50.16 397,48.74 368.47,55.61 a 0.88,0.88 0 0 1 -0.85,-0.26 q -8.14,-8.81 -19.1,-14.16 -5.63,-2.75 -6.79,-3.06 a 0.49,0.49 0 0 1 -0.26,-0.77 l 15.55,-20.13 a 0.53,0.53 0 0 0 -0.32,-0.84 c -23.66,-4.71 -48.65,0.9 -68.07,14.88 a 0.26,0.26 0 0 1 -0.41,-0.26 L 290.4,18.72 A 0.61,0.61 0 0 0 289.75,18 c -16.61,1.19 -29.87,7.89 -41.87,19.26 a 0.71,0.71 0 0 1 -0.82,0.11 c -10.35,-5.51 -20.6,-9.32 -32.51,-11.15 q -30.62,-4.68 -58.73,6.54 a 0.49,0.49 0 0 0 -0.13,0.83 l 12.64,10.32 a 0.15,0.15 0 0 1 -0.1,0.26"
       id="path1" />
    <path
       stroke="#be7f19"
       vector-effect="non-scaling-stroke"
       d="m 90.07,72.29 q -0.46,0.19 -0.65,0.53 a 0.56,0.55 37.3 0 0 0.1,0.66 l 12.84,12.85 a 1.01,1 -55.1 0 1 0.2,1.15 q -8,16.83 -2.42,33.3 c 3.96,11.68 12.79,20.72 24.99,23.38 a 0.67,0.67 0 0 0 0.78,-0.43 q 4.65,-13.12 13.28,-23.78 7.71,-9.52 18.42,-14.87 0.66,-0.33 0.67,-1.14"
       id="path2" />
    <path
       stroke="#3e2613"
       vector-effect="non-scaling-stroke"
       d="m 158.28,103.94 0.43,0.23 a 0.75,0.75 0 0 0 0.54,0.05 l 10.06,-2.8 a 0.47,0.46 77.7 0 0 0.33,-0.53 C 165.34,78.2 141.97,66.16 120.74,65.44 Q 104.67,64.9 90,71.77 q -0.35,0.17 0.07,0.52"
       id="path3" />
    <path
       stroke="#805906"
       vector-effect="non-scaling-stroke"
       d="M 158.28,103.94 C 153.32,91.61 143.02,82.14 131.03,76.71 Q 111.32,67.77 90.07,72.29"
       id="path4" />
    <path
       stroke="#be7f19"
       vector-effect="non-scaling-stroke"
       d="m 350.42,104.1 q 0.31,0.7 0.64,0.87 c 15.56,7.71 26.27,22.63 31.92,38.64 a 0.78,0.77 -15.3 0 0 0.89,0.5 q 9.09,-1.91 15.75,-8.49 c 12.74,-12.58 14.51,-32.42 6.71,-47.98 a 1.09,1.07 54.4 0 1 0.2,-1.26 L 419.4,73.51 a 0.61,0.61 0 0 0 -0.07,-0.92 q -0.24,-0.18 -0.63,-0.31"
       id="path5" />
    <path
       stroke="#3e2613"
       vector-effect="non-scaling-stroke"
       d="m 418.7,72.28 q 0.34,-0.2 0.1,-0.48 a 0.28,0.1 19.3 0 0 -0.05,-0.04 Q 395.77,61.09 371.72,68.23 c -15.67,4.66 -28.79,15.96 -32.46,32.28 a 0.97,0.97 0 0 0 0.77,1.16 q 4.71,0.85 8.96,2.56 0.57,0.24 1.43,-0.13"
       id="path6" />
    <path
       stroke="#805906"
       vector-effect="non-scaling-stroke"
       d="m 418.7,72.28 c -27.04,-5.69 -56.75,5.67 -68.28,31.82"
       id="path7" />
    <path
       stroke="#bea693"
       vector-effect="non-scaling-stroke"
       d="m 140.65,388.96 q 19.56,16.35 43.68,24.5 a 3.06,3.04 -3 0 1 1.8,1.61 c 8.93,19.43 25.76,35.09 46.82,39.72 30.35,6.67 58.56,-10.88 71.76,-37.85 a 1.72,1.68 3.9 0 1 1.04,-0.89 q 24.99,-7.54 45.53,-23.09"
       id="path8" />
    <path
       stroke="#be7f19"
       vector-effect="non-scaling-stroke"
       d="m 351.28,392.96 q 2.4,-1.14 4.89,-3.05 c 20.37,-15.64 36.3,-36.31 43.37,-61.05 a 0.54,0.54 0 0 1 0.98,-0.12 l 7.86,13.62 a 1.39,1.39 0 0 0 2.06,0.4 c 27.49,-21.42 27.75,-58.55 15.19,-88.17 q -12.6,-29.71 -37.62,-50.32 a 1.51,1.51 0 0 0 -2.14,0.23 q -6.45,8.11 -15.58,12.46 a 0.38,0.38 0 0 1 -0.53,-0.41 c 8.44,-44.54 -11.57,-89.69 -58.2,-101.17 a 0.99,0.99 0 0 0 -1.23,0.9 q -0.59,10.45 -3.54,21 a 0.37,0.37 0 0 1 -0.62,0.16 Q 293.12,124.08 274.48,121.3 a 0.59,0.58 7 0 0 -0.67,0.52 q -1.45,13.96 -10.9,24.72 a 0.45,0.45 0 0 1 -0.73,-0.07 c -8.57,-14.55 -25.76,-22.34 -42.21,-23.49 a 1.39,1.38 24.9 0 0 -1.05,0.38 q -13.07,12.31 -17.17,28.86 a 0.28,0.28 0 0 1 -0.54,-0.01 q -3.2,-14.33 -3.78,-28.49 a 0.96,0.95 -9.8 0 0 -1.24,-0.87 c -36.87,11.72 -52.5,54.34 -54.78,89.48 a 0.46,0.46 0 0 1 -0.77,0.32 q -7.37,-6.61 -10.87,-14.97 a 1.53,1.52 65.4 0 0 -2.08,-0.78 q -27.97,13.96 -46.03,39.25 c -17.93,25.1 -26.38,60.59 -6.21,87.28 a 1.72,1.71 45.2 0 0 2.73,0.01 q 6.96,-9.06 16.05,-16.77 a 0.31,0.31 0 0 1 0.51,0.22 c 0.31,14.58 4.19,28.41 11.02,41.48 q 12.61,24.15 34.89,40.59"
       id="path9" />
    <path
       stroke="#ffd986"
       vector-effect="non-scaling-stroke"
       d="m 351.28,392.96 q 6.26,-6.35 10.2,-11.23 9.31,-11.54 8.92,-26.96 -0.82,-31.99 -18.56,-58.34 -19.75,-29.32 -52.79,-43.54 -1.06,-0.46 -1.95,-1.08"
       id="path10" />
    <path
       stroke="#805906"
       vector-effect="non-scaling-stroke"
       d="m 297.1,251.81 q -0.05,-0.13 -0.13,-0.26 a 0.89,0.86 -4.4 0 0 -0.47,-0.39 q -47.65,-16.61 -94.52,-0.34"
       id="path11" />
    <path
       stroke="#ffd986"
       vector-effect="non-scaling-stroke"
       d="m 201.98,250.82 q -6.26,3.43 -12.19,6.6 -8,4.29 -11.94,6.94 c -25.9,17.43 -44.33,44.73 -49.18,75.82 -2.47,15.85 -2.33,29.31 7,41.63 q 3.86,5.1 4.98,7.15"
       id="path12" />
    <path
       stroke="#808080"
       vector-effect="non-scaling-stroke"
       d="m 297.1,251.81 c -1.06,28.87 -15.92,52.03 -39.11,68.35 a 0.37,0.36 -49.6 0 0 0.05,0.63 q 36.7,17.65 76.51,6.39 a 0.66,0.66 0 0 0 0.39,-0.97 q -1.39,-2.44 -2.65,-3.81 c -1.22,-1.33 -1.16,-3.07 0.1,-4.22 a 2.93,2.83 40.5 0 1 3.52,-0.22 q 1.67,1.11 2.91,3.25 5.27,9.06 1.05,18.75 a 2.54,2.54 0 0 1 -2.76,1.48 l -0.7,-0.13 a 2.58,2.57 -74.5 0 1 -1.95,-3.46 q 1.74,-4.52 1.43,-7.66 a 0.57,0.56 -16.8 0 0 -0.83,-0.44 c -13.7,7.18 -27.75,11.78 -43.03,13.02 a 0.79,0.78 4.7 0 0 -0.69,0.58 c -6.32,22.55 -27.09,41.94 -52.09,35.97 -17.5,-4.17 -29.06,-18.89 -34.35,-35.89 a 0.87,0.85 -6 0 0 -0.75,-0.6 c -15.26,-1.25 -27.6,-5.87 -41.18,-12.57 a 0.52,0.52 0 0 0 -0.75,0.46 q -0.08,3.21 1.45,7.17 a 2.52,2.52 0 0 1 -1.64,3.33 l -0.27,0.09 a 3.07,3.07 0 0 1 -3.71,-1.81 c -2.78,-6.97 -2.13,-16.77 4.2,-21.63 a 1.91,1.84 -65.1 0 1 0.93,-0.36 c 2.51,-0.22 4.88,2.47 2.95,4.53 q -2,2.14 -3.02,4.53 a 0.56,0.56 0 0 0 0.37,0.75 q 39.21,10.97 75.77,-6.44 a 0.52,0.51 -40.7 0 0 0.07,-0.89 c -7.62,-5.17 -14.34,-11.48 -19.78,-18.97 q -5.26,-7.24 -9.43,-15.97 -7.45,-15.58 -8.13,-34.23"
       id="path13" />
    <path
       stroke="#805906"
       vector-effect="non-scaling-stroke"
       d="m 178.05,251.32 a 0.42,0.42 0 0 0 0.6,0.19 c 19.09,-11.27 39.07,-16.93 61.2,-19.66 a 0.61,0.6 -6.9 0 0 0.52,-0.66 q -2.66,-24.31 -15.9,-43.96 c -4.48,-6.65 -10.97,-13.2 -17.81,-16.63 -18.45,-9.27 -31.83,4.53 -35.81,21.53 -4.59,19.62 -1.17,40.9 7.2,59.19"
       id="path14" />
    <path
       stroke="#805906"
       vector-effect="non-scaling-stroke"
       d="m 320.54,251.34 c 8.38,-18.29 11.81,-39.56 7.24,-59.18 -3.97,-17 -17.34,-30.81 -35.79,-21.55 -6.85,3.42 -13.34,9.97 -17.82,16.61 q -13.25,19.64 -15.93,43.94 a 0.61,0.6 6.9 0 0 0.52,0.66 c 22.12,2.75 42.1,8.42 61.18,19.7 a 0.42,0.42 0 0 0 0.6,-0.18"
       id="path15" />
    <path
       stroke="#808080"
       vector-effect="non-scaling-stroke"
       d="m 224.5,226.34 5.45,-0.62 a 0.49,0.48 84.1 0 0 0.43,-0.54 c -1.67,-15.29 -8.37,-31.96 -20.8,-41.47 q -5.24,-4 -10.99,-4.27 c -10.77,-0.49 -16.75,9.66 -18.64,19.11 -2.72,13.64 -0.32,27.8 5.2,40.5 a 1.04,1.04 0 0 0 1.47,0.49 l 6.58,-3.8 a 1.27,1.26 64 0 0 0.54,-1.58 c -2.68,-6.59 -2.97,-15.38 -1.63,-21.99 0.96,-4.7 3.94,-10.46 8.93,-11.68 12.7,-3.08 21.28,15.91 22.91,25.44 a 0.51,0.5 -7.9 0 0 0.55,0.41"
       id="path16" />
    <path
       stroke="#808080"
       vector-effect="non-scaling-stroke"
       d="m 306.79,236.53 5.64,3.25 a 0.52,0.51 -62.3 0 0 0.73,-0.23 c 6.09,-13.39 8.52,-28.8 4.95,-43.12 -2.1,-8.38 -8.02,-17.2 -17.4,-16.99 -11.15,0.25 -20.04,11.03 -24.82,20.26 q -6.2,11.99 -7.69,25.52 a 0.2,0.2 0 0 0 0.17,0.22 l 8.02,1.42 a 0.31,0.3 10.1 0 0 0.36,-0.25 q 2.19,-12.9 10.42,-21.62 c 3.37,-3.57 9.51,-6.46 14.24,-3.9 10.93,5.94 8.82,25.08 5.13,34.72 a 0.59,0.58 -64.5 0 0 0.25,0.72"
       id="path17" />
    <path
       stroke="#3e2613"
       vector-effect="non-scaling-stroke"
       d="m 277.17,354.74 q 6.31,-8.21 8.82,-17.89 a 0.61,0.6 9.9 0 0 -0.54,-0.76 q -15.62,-1.27 -30.39,-7.68 -5.21,-2.27 -6.08,-2.64 a 1.15,1.11 -45.9 0 0 -0.94,0.03 q -17.41,8.78 -36.82,10.32 a 0.9,0.9 0 0 0 -0.8,1.13 q 2.2,8.29 6.99,15.33 a 0.72,0.72 0 0 0 1.08,0.12 c 17.53,-16.12 41.2,-14.7 57.8,2.09 a 0.59,0.58 41.7 0 0 0.88,-0.05"
       id="path18" />
  </g>
  <path
     fill="#7c4c26"
     d="m 154.8619,30.417119 a 0.15,0.15 0 0 0 0.1,-0.26 l -12.64,-10.32 a 0.49,0.49 0 0 1 0.13,-0.83 q 28.11,-11.2200004 58.73,-6.54 c 11.91,1.83 22.16,5.64 32.51,11.15 a 0.71,0.71 0 0 0 0.82,-0.11 c 12,-11.37 25.26,-18.0700004 41.87,-19.2600004 a 0.61,0.61 0 0 1 0.65,0.72 l -2.18,12.2900004 a 0.26,0.26 0 0 0 0.41,0.26 c 19.42,-13.9800004 44.41,-19.5900004 68.07,-14.8800004 a 0.53,0.53 0 0 1 0.32,0.84 l -15.55,20.1300004 a 0.49,0.49 0 0 0 0.26,0.77 q 1.16,0.31 6.79,3.06 10.96,5.35 19.1,14.16 a 0.88,0.88 0 0 0 0.85,0.26 c 28.53,-6.87 61.14,-5.45 88.6,5.94 a 0.36,0.36 0 0 1 0.04,0.64 l -20.77,11.99 a 0.56,0.56 0 0 0 -0.24,0.69 c 0.7,1.73 2.24,4.73 2.68,6.44 q 6.01,23.66 -11.55,40.260001 a 0.36,0.36 0 0 0 0.02,0.55 c 18.73,14.78 30.94,36.71 33.2,60.6 a 0.57,0.56 82.3 0 1 -0.46,0.61 l -12.97,2.33 a 0.28,0.28 0 0 0 -0.17,0.45 c 27.95,34.34 39.4,84.41 33.1,128.08 a 0.58,0.59 9.5 0 1 -0.68,0.49 l -13.73,-2.43 a 0.41,0.4 11 0 0 -0.47,0.31 c -9.93,48.98 -31.59,97.08 -64.16,135.35 a 0.93,0.91 29.7 0 1 -1.02,0.27 l -17.51,-6.3 a 0.6,0.61 16.2 0 0 -0.79,0.44 q -7.18,31.97 -25.72,58.8 -3.93,5.68 -7.58,9.68 a 1.01,1 30.7 0 1 -1.09,0.27 l -23.07,-8.3 a 0.36,0.37 26.7 0 0 -0.43,0.15 q -11.91,18.24 -29.06,32.25 c -19.02,15.54 -39.92,27.17 -63.19,33.93 a 0.51,0.52 5.4 0 1 -0.6,-0.73 l 11.64,-23.52 a 0.39,0.39 0 0 0 -0.46,-0.55 c -14.25,4.15 -27.9,7.24 -42.55,7.9 a 0.46,0.46 0 0 1 -0.37,-0.75 l 15.55,-19.05 a 0.37,0.37 0 0 0 -0.17,-0.59 c -38.17,-12.47 -74.47,-33.52 -102.439996,-62.55 a 0.41,0.41 0 0 0 -0.65,0.08 l -9.51,16.47 a 0.62,0.62 0 0 1 -0.99,0.11 c -33.11,-36.26 -55.97,-83.06 -67.59,-130.45 a 0.74,0.74 0 0 0 -0.85,-0.56 l -14.4499997,2.59 a 0.76,0.77 80.6 0 1 -0.9,-0.64 q -7.98,-55.29 7.2599997,-109.25 5.43,-19.22 14.47,-36.7 a 0.41,0.41 0 0 0 -0.41,-0.59 l -20.3599997,2.31 a 0.55,0.55 0 0 1 -0.61,-0.55 c 0.39,-31.25 17.2399997,-62.5 39.2499997,-83.88 a 0.5,0.5 0 0 0 0.1,-0.57 c -9.8,-21.490001 -5.66,-46.600001 10.87,-63.410001 a 0.35,0.35 0 0 0 0,-0.48 l -13,-13 a 0.43,0.43 0 0 1 0.1,-0.69 c 22.65,-11.77 49.91,-10.5 71.279996,2.91 a 1.24,1.24 0 0 0 1.11,0.1 q 1.76,-0.72 4.41,-1.97 c 11.06,-5.17 24.41,-7.22 36.65,-6.92 z m -78.159996,28.12 q -0.46,0.19 -0.65,0.53 a 0.56,0.55 37.3 0 0 0.1,0.66 l 12.84,12.85 a 1,1.01 34.9 0 1 0.2,1.15 q -8,16.83 -2.42,33.300001 c 3.96,11.68 12.79,20.72 24.989996,23.38 a 0.67,0.67 0 0 0 0.78,-0.43 q 4.65,-13.12 13.28,-23.78 7.71,-9.520001 18.42,-14.870001 0.66,-0.33 0.67,-1.14 l 0.43,0.23 a 0.75,0.75 0 0 0 0.54,0.05 l 10.06,-2.8 a 0.47,0.46 77.7 0 0 0.33,-0.53 c -4.3,-22.69 -27.67,-34.73 -48.9,-35.45 q -16.069996,-0.54 -30.739996,6.33 -0.35,0.17 0.07,0.52 z m 260.349996,31.81 q 0.31,0.7 0.64,0.87 c 15.56,7.71 26.27,22.630001 31.92,38.640001 a 0.77,0.78 74.7 0 0 0.89,0.5 q 9.09,-1.91 15.75,-8.49 c 12.74,-12.58 14.51,-32.420001 6.71,-47.980001 a 1.09,1.07 54.4 0 1 0.2,-1.26 l 12.87,-12.87 a 0.61,0.61 0 0 0 -0.07,-0.92 q -0.24,-0.18 -0.63,-0.31 0.34,-0.2 0.1,-0.48 a 0.28,0.1 19.3 0 0 -0.05,-0.04 q -22.98,-10.67 -47.03,-3.53 c -15.67,4.66 -28.79,15.96 -32.46,32.28 a 0.97,0.97 0 0 0 0.77,1.16 q 4.71,0.85 8.96,2.56 0.57,0.24 1.43,-0.13 z m -209.77,284.860001 q 19.56,16.35 43.68,24.5 a 3.04,3.06 87 0 1 1.8,1.61 c 8.93,19.43 25.76,35.09 46.82,39.72 30.35,6.67 58.56,-10.88 71.76,-37.85 a 1.72,1.68 3.9 0 1 1.04,-0.89 q 24.99,-7.54 45.53,-23.09 2.4,-1.14 4.89,-3.05 c 20.37,-15.64 36.3,-36.31 43.37,-61.05 a 0.54,0.54 0 0 1 0.98,-0.12 l 7.86,13.62 a 1.39,1.39 0 0 0 2.06,0.4 c 27.49,-21.42 27.75,-58.55 15.19,-88.17 q -12.6,-29.71 -37.62,-50.32 a 1.51,1.51 0 0 0 -2.14,0.23 q -6.45,8.11 -15.58,12.46 a 0.38,0.38 0 0 1 -0.53,-0.41 c 8.44,-44.54 -11.57,-89.69 -58.2,-101.17 a 0.99,0.99 0 0 0 -1.23,0.9 q -0.59,10.45 -3.54,21 a 0.37,0.37 0 0 1 -0.62,0.16 q -13.05,-13.36 -31.69,-16.14 a 0.59,0.58 7 0 0 -0.67,0.52 q -1.45,13.96 -10.9,24.72 a 0.45,0.45 0 0 1 -0.73,-0.07 c -8.57,-14.55 -25.76,-22.34 -42.21,-23.49 a 1.39,1.38 24.9 0 0 -1.05,0.38 q -13.07,12.31 -17.17,28.86 a 0.28,0.28 0 0 1 -0.54,-0.01 q -3.2,-14.33 -3.78,-28.49 a 0.95,0.96 80.2 0 0 -1.24,-0.87 c -36.87,11.72 -52.5,54.34 -54.78,89.48 a 0.46,0.46 0 0 1 -0.77,0.32 q -7.37,-6.61 -10.87,-14.97 a 1.53,1.52 65.4 0 0 -2.08,-0.78 q -27.969996,13.96 -46.029996,39.25 c -17.93,25.1 -26.38,60.59 -6.21,87.28 a 1.72,1.71 45.2 0 0 2.73,0.01 q 6.96,-9.06 16.05,-16.77 a 0.31,0.31 0 0 1 0.51,0.22 c 0.31,14.58 4.19,28.41 11.02,41.48 q 12.609996,24.15 34.889996,40.59 z"
     id="path20" />
  <path
     fill="#000000"
     d="m 144.9119,90.187119 c -4.96,-12.33 -15.26,-21.8 -27.25,-27.23 q -19.709996,-8.94 -40.959996,-4.42 -0.42,-0.35 -0.07,-0.52 14.67,-6.87 30.739996,-6.33 c 21.23,0.72 44.6,12.76 48.9,35.45 a 0.47,0.46 77.7 0 1 -0.33,0.53 l -10.06,2.8 a 0.75,0.75 0 0 1 -0.54,-0.05 z"
     id="path21" />
  <path
     fill="#000000"
     d="m 405.3319,58.527119 c -27.04,-5.69 -56.75,5.67 -68.28,31.82 q -0.86,0.37 -1.43,0.13 -4.25,-1.71 -8.96,-2.56 a 0.97,0.97 0 0 1 -0.77,-1.16 c 3.67,-16.32 16.79,-27.62 32.46,-32.28 q 24.05,-7.14 47.03,3.53 a 0.28,0.1 19.3 0 1 0.05,0.04 q 0.24,0.28 -0.1,0.48 z"
     id="path22" />
  <path
     fill="#ffb20c"
     d="m 144.9119,90.187119 q -0.01,0.81 -0.67,1.14 -10.71,5.35 -18.42,14.870001 -8.63,10.66 -13.28,23.78 a 0.67,0.67 0 0 1 -0.78,0.43 c -12.199996,-2.66 -21.029996,-11.7 -24.989996,-23.38 q -5.58,-16.470001 2.42,-33.300001 a 1,1.01 34.9 0 0 -0.2,-1.15 l -12.84,-12.85 a 0.56,0.55 37.3 0 1 -0.1,-0.66 q 0.19,-0.34 0.65,-0.53 21.25,-4.52 40.959996,4.42 c 11.99,5.43 22.29,14.9 27.25,27.23 z"
     id="path23" />
  <path
     fill="#ffb20c"
     d="m 405.3319,58.527119 q 0.39,0.13 0.63,0.31 a 0.61,0.61 0 0 1 0.07,0.92 l -12.87,12.87 a 1.09,1.07 54.4 0 0 -0.2,1.26 c 7.8,15.56 6.03,35.400001 -6.71,47.980001 q -6.66,6.58 -15.75,8.49 a 0.77,0.78 74.7 0 1 -0.89,-0.5 c -5.65,-16.01 -16.36,-30.930001 -31.92,-38.640001 q -0.33,-0.17 -0.64,-0.87 c 11.53,-26.15 41.24,-37.51 68.28,-31.82 z"
     id="path24" />
  <path
     fill="#ffb20c"
     d="m 337.9119,379.20712 q 6.26,-6.35 10.2,-11.23 9.31,-11.54 8.92,-26.96 -0.82,-31.99 -18.56,-58.34 -19.75,-29.32 -52.79,-43.54 -1.06,-0.46 -1.95,-1.08 -0.05,-0.13 -0.13,-0.26 a 0.86,0.89 85.6 0 0 -0.47,-0.39 q -47.65,-16.61 -94.52,-0.34 -6.26,3.43 -12.19,6.6 -8,4.29 -11.94,6.94 c -25.9,17.43 -44.33,44.73 -49.18,75.82 -2.47,15.85 -2.33,29.31 7,41.63 q 3.86,5.1 4.98,7.15 -22.28,-16.44 -34.889996,-40.59 c -6.83,-13.07 -10.71,-26.9 -11.02,-41.48 a 0.31,0.31 0 0 0 -0.51,-0.22 q -9.09,7.71 -16.05,16.77 a 1.72,1.71 45.2 0 1 -2.73,-0.01 c -20.17,-26.69 -11.72,-62.18 6.21,-87.28 q 18.06,-25.29 46.029996,-39.25 a 1.53,1.52 65.4 0 1 2.08,0.78 q 3.5,8.36 10.87,14.97 a 0.46,0.46 0 0 0 0.77,-0.32 c 2.28,-35.14 17.91,-77.76 54.78,-89.48 a 0.95,0.96 80.2 0 1 1.24,0.87 q 0.58,14.16 3.78,28.49 a 0.28,0.28 0 0 0 0.54,0.01 q 4.1,-16.55 17.17,-28.86 a 1.39,1.38 24.9 0 1 1.05,-0.38 c 16.45,1.15 33.64,8.94 42.21,23.49 a 0.45,0.45 0 0 0 0.73,0.07 q 9.45,-10.76 10.9,-24.72 a 0.59,0.58 7 0 1 0.67,-0.52 q 18.64,2.78 31.69,16.14 a 0.37,0.37 0 0 0 0.62,-0.16 q 2.95,-10.55 3.54,-21 a 0.99,0.99 0 0 1 1.23,-0.9 c 46.63,11.48 66.64,56.63 58.2,101.17 a 0.38,0.38 0 0 0 0.53,0.41 q 9.13,-4.35 15.58,-12.46 a 1.51,1.51 0 0 1 2.14,-0.23 q 25.02,20.61 37.62,50.32 c 12.56,29.62 12.3,66.75 -15.19,88.17 a 1.39,1.39 0 0 1 -2.06,-0.4 l -7.86,-13.62 a 0.54,0.54 0 0 0 -0.98,0.12 c -7.07,24.74 -23,45.41 -43.37,61.05 q -2.49,1.91 -4.89,3.05 z m -173.23,-141.64 a 0.42,0.42 0 0 0 0.6,0.19 c 19.09,-11.27 39.07,-16.93 61.2,-19.66 a 0.6,0.61 83.1 0 0 0.52,-0.66 q -2.66,-24.31 -15.9,-43.96 c -4.48,-6.65 -10.97,-13.2 -17.81,-16.63 -18.45,-9.27 -31.83,4.53 -35.81,21.53 -4.59,19.62 -1.17,40.9 7.2,59.19 z m 142.49,0.02 c 8.38,-18.29 11.81,-39.56 7.24,-59.18 -3.97,-17 -17.34,-30.81 -35.79,-21.55 -6.85,3.42 -13.34,9.97 -17.82,16.61 q -13.25,19.64 -15.93,43.94 a 0.61,0.6 6.9 0 0 0.52,0.66 c 22.12,2.75 42.1,8.42 61.18,19.7 a 0.42,0.42 0 0 0 0.6,-0.18 z"
     id="path25" />
  <path
     fill="#000000"
     d="m 164.6819,237.56712 c -8.37,-18.29 -11.79,-39.57 -7.2,-59.19 3.98,-17 17.36,-30.8 35.81,-21.53 6.84,3.43 13.33,9.98 17.81,16.63 q 13.24,19.65 15.9,43.96 a 0.6,0.61 83.1 0 1 -0.52,0.66 c -22.13,2.73 -42.11,8.39 -61.2,19.66 a 0.42,0.42 0 0 1 -0.6,-0.19 z m 46.45,-24.98 5.45,-0.62 a 0.49,0.48 84.1 0 0 0.43,-0.54 c -1.67,-15.29 -8.37,-31.96 -20.8,-41.47 q -5.24,-4 -10.99,-4.27 c -10.77,-0.49 -16.75,9.66 -18.64,19.11 -2.72,13.64 -0.32,27.8 5.2,40.5 a 1.04,1.04 0 0 0 1.47,0.49 l 6.58,-3.8 a 1.27,1.26 64 0 0 0.54,-1.58 c -2.68,-6.59 -2.97,-15.38 -1.63,-21.99 0.96,-4.7 3.94,-10.46 8.93,-11.68 12.7,-3.08 21.28,15.91 22.91,25.44 a 0.5,0.51 82.1 0 0 0.55,0.41 z"
     id="path26" />
  <path
     fill="#000000"
     d="m 307.1719,237.58712 a 0.42,0.42 0 0 1 -0.6,0.18 c -19.08,-11.28 -39.06,-16.95 -61.18,-19.7 a 0.61,0.6 6.9 0 1 -0.52,-0.66 q 2.68,-24.3 15.93,-43.94 c 4.48,-6.64 10.97,-13.19 17.82,-16.61 18.45,-9.26 31.82,4.55 35.79,21.55 4.57,19.62 1.14,40.89 -7.24,59.18 z m -13.75,-14.81 5.64,3.25 a 0.51,0.52 27.7 0 0 0.73,-0.23 c 6.09,-13.39 8.52,-28.8 4.95,-43.12 -2.1,-8.38 -8.02,-17.2 -17.4,-16.99 -11.15,0.25 -20.04,11.03 -24.82,20.26 q -6.2,11.99 -7.69,25.52 a 0.2,0.2 0 0 0 0.17,0.22 l 8.02,1.42 a 0.31,0.3 10.1 0 0 0.36,-0.25 q 2.19,-12.9 10.42,-21.62 c 3.37,-3.57 9.51,-6.46 14.24,-3.9 10.93,5.94 8.82,25.08 5.13,34.72 a 0.58,0.59 25.5 0 0 0.25,0.72 z"
     id="path27" />
  <path
     fill="#ffffff"
     d="m 210.5819,212.17712 c -1.63,-9.53 -10.21,-28.52 -22.91,-25.44 -4.99,1.22 -7.97,6.98 -8.93,11.68 -1.34,6.61 -1.05,15.4 1.63,21.99 a 1.27,1.26 64 0 1 -0.54,1.58 l -6.58,3.8 a 1.04,1.04 0 0 1 -1.47,-0.49 c -5.52,-12.7 -7.92,-26.86 -5.2,-40.5 1.89,-9.45 7.87,-19.6 18.64,-19.11 q 5.75,0.27 10.99,4.27 c 12.43,9.51 19.13,26.18 20.8,41.47 a 0.49,0.48 84.1 0 1 -0.43,0.54 l -5.45,0.62 a 0.5,0.51 82.1 0 1 -0.55,-0.41 z"
     id="path28" />
  <path
     fill="#ffffff"
     d="m 293.1719,222.05712 c 3.69,-9.64 5.8,-28.78 -5.13,-34.72 -4.73,-2.56 -10.87,0.33 -14.24,3.9 q -8.23,8.72 -10.42,21.62 a 0.31,0.3 10.1 0 1 -0.36,0.25 l -8.02,-1.42 a 0.2,0.2 0 0 1 -0.17,-0.22 q 1.49,-13.53 7.69,-25.52 c 4.78,-9.23 13.67,-20.01 24.82,-20.26 9.38,-0.21 15.3,8.61 17.4,16.99 3.57,14.32 1.14,29.73 -4.95,43.12 a 0.51,0.52 27.7 0 1 -0.73,0.23 l -5.64,-3.25 a 0.58,0.59 25.5 0 1 -0.25,-0.72 z"
     id="path29" />
  <path
     fill="#000000"
     d="m 283.7319,238.05712 c -1.06,28.87 -15.92,52.03 -39.11,68.35 a 0.36,0.37 40.4 0 0 0.05,0.63 q 36.7,17.65 76.51,6.39 a 0.66,0.66 0 0 0 0.39,-0.97 q -1.39,-2.44 -2.65,-3.81 c -1.22,-1.33 -1.16,-3.07 0.1,-4.22 a 2.93,2.83 40.5 0 1 3.52,-0.22 q 1.67,1.11 2.91,3.25 5.27,9.06 1.05,18.75 a 2.54,2.54 0 0 1 -2.76,1.48 l -0.7,-0.13 a 2.57,2.58 15.5 0 1 -1.95,-3.46 q 1.74,-4.52 1.43,-7.66 a 0.56,0.57 73.2 0 0 -0.83,-0.44 c -13.7,7.18 -27.75,11.78 -43.03,13.02 a 0.79,0.78 4.7 0 0 -0.69,0.58 c -6.32,22.55 -27.09,41.94 -52.09,35.97 -17.5,-4.17 -29.06,-18.89 -34.35,-35.89 a 0.85,0.87 84 0 0 -0.75,-0.6 c -15.26,-1.25 -27.6,-5.87 -41.18,-12.57 a 0.52,0.52 0 0 0 -0.75,0.46 q -0.08,3.21 1.45,7.17 a 2.52,2.52 0 0 1 -1.64,3.33 l -0.27,0.09 a 3.07,3.07 0 0 1 -3.71,-1.81 c -2.78,-6.97 -2.13,-16.77 4.2,-21.63 a 1.84,1.91 24.9 0 1 0.93,-0.36 c 2.51,-0.22 4.88,2.47 2.95,4.53 q -2,2.14 -3.02,4.53 a 0.56,0.56 0 0 0 0.37,0.75 q 39.21,10.97 75.77,-6.44 a 0.51,0.52 49.3 0 0 0.07,-0.89 c -7.62,-5.17 -14.34,-11.48 -19.78,-18.97 q -5.26,-7.24 -9.43,-15.97 -7.45,-15.58 -8.13,-34.23 46.87,-16.27 94.52,0.34 a 0.86,0.89 85.6 0 1 0.47,0.39 q 0.08,0.13 0.13,0.26 z m -19.93,102.93 q 6.31,-8.21 8.82,-17.89 a 0.61,0.6 9.9 0 0 -0.54,-0.76 q -15.62,-1.27 -30.39,-7.68 -5.21,-2.27 -6.08,-2.64 a 1.11,1.15 44.1 0 0 -0.94,0.03 q -17.41,8.78 -36.82,10.32 a 0.9,0.9 0 0 0 -0.8,1.13 q 2.2,8.29 6.99,15.33 a 0.72,0.72 0 0 0 1.08,0.12 c 17.53,-16.12 41.2,-14.7 57.8,2.09 a 0.59,0.58 41.7 0 0 0.88,-0.05 z"
     id="path30" />
  <path
     fill="#ffffff"
     d="m 188.6119,237.06712 q 0.68,18.65 8.13,34.23 4.17,8.73 9.43,15.97 c 5.44,7.49 12.16,13.8 19.78,18.97 a 0.51,0.52 49.3 0 1 -0.07,0.89 q -36.56,17.41 -75.77,6.44 a 0.56,0.56 0 0 1 -0.37,-0.75 q 1.02,-2.39 3.02,-4.53 c 1.93,-2.06 -0.44,-4.75 -2.95,-4.53 a 1.84,1.91 24.9 0 0 -0.93,0.36 c -6.33,4.86 -6.98,14.66 -4.2,21.63 a 3.07,3.07 0 0 0 3.71,1.81 l 0.27,-0.09 a 2.52,2.52 0 0 0 1.64,-3.33 q -1.53,-3.96 -1.45,-7.17 a 0.52,0.52 0 0 1 0.75,-0.46 c 13.58,6.7 25.92,11.32 41.18,12.57 a 0.85,0.87 84 0 1 0.75,0.6 c 5.29,17 16.85,31.72 34.35,35.89 25,5.97 45.77,-13.42 52.09,-35.97 a 0.79,0.78 4.7 0 1 0.69,-0.58 c 15.28,-1.24 29.33,-5.84 43.03,-13.02 a 0.56,0.57 73.2 0 1 0.83,0.44 q 0.31,3.14 -1.43,7.66 a 2.57,2.58 15.5 0 0 1.95,3.46 l 0.7,0.13 a 2.54,2.54 0 0 0 2.76,-1.48 q 4.22,-9.69 -1.05,-18.75 -1.24,-2.14 -2.91,-3.25 a 2.93,2.83 40.5 0 0 -3.52,0.22 c -1.26,1.15 -1.32,2.89 -0.1,4.22 q 1.26,1.37 2.65,3.81 a 0.66,0.66 0 0 1 -0.39,0.97 q -39.81,11.26 -76.51,-6.39 a 0.36,0.37 40.4 0 1 -0.05,-0.63 c 23.19,-16.32 38.05,-39.48 39.11,-68.35 q 0.89,0.62 1.95,1.08 33.04,14.22 52.79,43.54 17.74,26.35 18.56,58.34 0.39,15.42 -8.92,26.96 -3.94,4.88 -10.2,11.23 -20.54,15.55 -45.53,23.09 a 1.72,1.68 3.9 0 0 -1.04,0.89 c -13.2,26.97 -41.41,44.52 -71.76,37.85 -21.06,-4.63 -37.89,-20.29 -46.82,-39.72 a 3.04,3.06 87 0 0 -1.8,-1.61 q -24.12,-8.15 -43.68,-24.5 -1.12,-2.05 -4.98,-7.15 c -9.33,-12.32 -9.47,-25.78 -7,-41.63 4.85,-31.09 23.28,-58.39 49.18,-75.82 q 3.94,-2.65 11.94,-6.94 5.93,-3.17 12.19,-6.6 z"
     id="path31" />
  <path
     fill="#7c4c26"
     d="m 263.8019,340.98712 a 0.59,0.58 41.7 0 1 -0.88,0.05 c -16.6,-16.79 -40.27,-18.21 -57.8,-2.09 a 0.72,0.72 0 0 1 -1.08,-0.12 q -4.79,-7.04 -6.99,-15.33 a 0.9,0.9 0 0 1 0.8,-1.13 q 19.41,-1.54 36.82,-10.32 a 1.11,1.15 44.1 0 1 0.94,-0.03 q 0.87,0.37 6.08,2.64 14.77,6.41 30.39,7.68 a 0.61,0.6 9.9 0 1 0.54,0.76 q -2.51,9.68 -8.82,17.89 z"
     id="path32" />
</svg>
