<?xml version="1.0" encoding="UTF-8" standalone="no"?>
<svg
   version="1.1"
   viewBox="0.00 0.00 336.00 336.00"
   id="svg140"
   sodipodi:docname="tiger-rank.svg"
   inkscape:version="1.4.3 (0d15f75042, 2025-12-25)"
   xmlns:inkscape="http://www.inkscape.org/namespaces/inkscape"
   xmlns:sodipodi="http://sodipodi.sourceforge.net/DTD/sodipodi-0.dtd"
   xmlns="http://www.w3.org/2000/svg"
   xmlns:svg="http://www.w3.org/2000/svg">
  <defs
     id="defs140" />
  <sodipodi:namedview
     id="namedview140"
     pagecolor="#ffffff"
     bordercolor="#000000"
     borderopacity="0.25"
     inkscape:showpageshadow="2"
     inkscape:pageopacity="0.0"
     inkscape:pagecheckerboard="0"
     inkscape:deskcolor="#d1d1d1"
     inkscape:zoom="0.92631591"
     inkscape:cx="254.23292"
     inkscape:cy="118.21021"
     inkscape:window-width="990"
     inkscape:window-height="568"
     inkscape:window-x="0"
     inkscape:window-y="0"
     inkscape:window-maximized="1"
     inkscape:current-layer="svg140" />
  <path
     fill="#fde302"
     d="   M 335.5884 167.5757   A 0.60 0.60 0.0 0 1 335.5884 168.4243   L 168.4143 335.5984   A 0.60 0.60 0.0 0 1 167.5657 335.5984   L 0.3916 168.4243   A 0.60 0.60 0.0 0 1 0.3916 167.5757   L 167.5657 0.4016   A 0.60 0.60 0.0 0 1 168.4143 0.4016   L 335.5884 167.5757   Z   M 168.6057 13.5944   A 0.80 0.80 0.0 0 0 167.4743 13.5944   L 13.6644 167.4043   A 0.80 0.80 0.0 0 0 13.6644 168.5357   L 167.4743 322.3456   A 0.80 0.80 0.0 0 0 168.6057 322.3456   L 322.4156 168.5357   A 0.80 0.80 0.0 0 0 322.4156 167.4043   L 168.6057 13.5944   Z"
     id="path93" />
  <path
     fill="#f48c2b"
     d="   M 322.4156 167.4043   A 0.80 0.80 0.0 0 1 322.4156 168.5357   L 168.6057 322.3456   A 0.80 0.80 0.0 0 1 167.4743 322.3456   L 13.6644 168.5357   A 0.80 0.80 0.0 0 1 13.6644 167.4043   L 167.4743 13.5944   A 0.80 0.80 0.0 0 1 168.6057 13.5944   L 322.4156 167.4043   Z   M 237.45 156.89   L 240.84 158.84   A 0.74 0.74 0.0 0 0 241.88 157.87   L 236.54 147.15   A 0.22 0.22 0.0 0 1 236.85 146.86   L 238.59 147.86   A 0.57 0.57 0.0 0 0 239.43 147.22   Q 236.91 137.56 230.32 129.41   Q 228.84 127.57 225.73 123.87   A 0.50 0.49 -33.2 0 1 225.89 123.11   C 228.98 121.59 229.04 118.84 229.91 116.14   A 3.82 3.77 79.3 0 1 231.11 114.36   Q 235.22 110.95 236.17 104.74   Q 237.85 93.65 229.10 88.10   Q 225.06 85.53 219.59 87.08   C 213.40 88.83 210.41 91.01 204.63 95.39   A 2.87 2.87 0.0 0 1 203.96 95.76   Q 200.89 96.91 199.17 96.37   Q 192.74 94.35 190.97 93.81   Q 163.85 85.68 137.97 95.74   C 132.60 97.82 130.32 94.75 125.59 91.25   C 122.01 88.59 114.30 85.57 109.76 86.81   Q 106.45 87.71 103.61 90.87   Q 97.59 97.57 100.15 107.38   Q 101.12 111.11 103.86 113.52   Q 105.56 115.03 106.04 116.65   C 106.64 118.67 107.04 122.14 109.44 122.80   A 0.87 0.86 -61.9 0 1 109.86 124.20   Q 108.31 126.00 106.13 128.63   C 103.58 131.70 102.42 134.92 100.49 139.42   C 98.48 144.13 96.66 147.30 93.67 152.68   Q 93.05 153.79 92.63 157.07   A 0.48 0.48 0.0 0 0 93.16 157.60   L 95.05 157.38   A 0.70 0.70 0.0 0 1 95.75 158.39   Q 92.19 165.49 91.61 170.92   A 0.53 0.53 0.0 0 0 92.47 171.40   L 96.45 168.26   A 0.43 0.43 0.0 0 1 97.14 168.64   Q 95.87 181.42 95.45 186.75   Q 95.20 189.83 95.57 191.24   A 0.83 0.83 0.0 0 0 97.16 191.31   Q 97.38 190.70 98.37 189.81   A 0.82 0.81 -27.5 0 1 99.71 190.23   Q 100.34 193.04 100.53 196.76   Q 100.65 199.35 103.30 204.69   A 1.53 1.52 88.2 0 0 104.06 205.41   C 105.64 206.10 107.99 205.46 109.22 206.67   C 112.39 209.80 114.49 216.18 115.62 220.77   A 0.82 0.81 53.2 0 0 117.12 220.99   L 119.08 217.59   A 0.39 0.39 0.0 0 1 119.72 217.55   Q 123.39 222.29 124.25 222.78   Q 130.16 226.19 130.61 226.49   A 0.66 0.65 33.4 0 0 131.52 226.31   C 135.25 220.73 141.80 220.22 147.53 222.10   A 0.60 0.59 29.4 0 1 147.80 223.05   L 146.18 224.94   A 0.53 0.53 0.0 0 0 146.71 225.80   Q 150.26 224.93 153.64 225.90   Q 155.47 226.42 154.89 228.21   A 0.46 0.46 0.0 0 0 155.12 228.76   Q 159.60 231.07 163.75 230.34   A 0.50 0.49 -85.1 0 1 164.30 231.00   L 164.07 231.62   A 0.65 0.64 -8.9 0 0 165.08 232.35   L 167.91 230.12   A 0.72 0.71 -47.4 0 1 168.73 230.08   L 171.33 231.75   A 0.67 0.67 0.0 0 0 172.36 231.09   Q 172.35 230.95 172.35 230.93   A 0.28 0.27 -3.6 0 1 172.63 230.62   Q 176.15 230.64 180.52 228.83   A 0.44 0.44 0.0 0 0 180.57 228.05   L 180.16 227.81   A 0.38 0.37 -45.3 0 1 180.16 227.16   Q 184.76 224.41 189.31 226.03   A 0.45 0.44 -9.3 0 0 189.81 225.34   L 187.99 223.03   A 0.61 0.60 -28.0 0 1 188.29 222.08   C 191.27 221.14 197.61 219.87 199.79 222.80   Q 201.47 225.05 203.25 227.87   A 0.14 0.14 0.0 0 0 203.47 227.88   L 211.40 218.64   A 0.94 0.93 35.9 0 1 212.61 218.45   Q 213.94 219.28 214.49 221.34   A 1.00 1.00 0.0 0 0 216.17 221.79   L 227.24 210.71   A 1.52 1.43 80.0 0 0 227.60 210.16   L 228.78 207.02   A 0.23 0.23 0.0 0 1 229.20 206.99   L 229.95 208.50   A 0.59 0.59 0.0 0 0 231.00 208.51   Q 234.22 202.38 234.40 195.84   A 0.35 0.35 0.0 0 1 234.98 195.58   Q 235.55 196.06 235.98 196.97   A 0.74 0.74 0.0 0 0 237.34 196.93   Q 240.74 188.07 239.57 178.56   A 0.47 0.46 -60.0 0 1 240.46 178.32   Q 241.13 179.90 242.14 179.51   A 0.87 0.84 88.1 0 0 242.65 178.95   Q 243.59 175.85 241.87 170.37   Q 240.03 164.54 237.09 157.20   A 0.25 0.25 0.0 0 1 237.45 156.89   Z   M 166.43 260.05   L 166.43 261.16   A 0.78 0.77 0.0 0 0 167.21 261.93   L 169.24 261.93   A 0.55 0.55 0.0 0 0 169.79 261.38   L 169.79 250.23   A 0.62 0.61 -0.0 0 0 169.17 249.62   L 161.52 249.62   A 0.98 0.97 0.0 0 0 160.54 250.59   L 160.54 252.51   A 1.05 1.05 0.0 0 0 161.59 253.56   L 164.66 253.56   A 0.76 0.76 0.0 0 1 165.39 254.51   Q 164.43 258.16 160.49 258.39   C 150.10 259.01 153.00 237.99 163.01 243.11   A 2.49 2.41 -4.7 0 1 163.79 243.75   L 165.40 245.79   A 1.11 1.10 -18.8 0 0 166.27 246.21   L 168.99 246.21   A 0.55 0.55 0.0 0 0 169.53 245.55   C 167.89 237.51 156.71 236.24 152.01 242.16   C 147.71 247.57 148.44 258.50 155.22 261.71   Q 160.69 264.29 165.96 259.83   A 0.29 0.28 69.9 0 1 166.43 260.05   Z   M 130.63 262.03   Q 131.42 262.03 132.35 261.99   A 0.59 0.59 0.0 0 0 132.91 261.40   L 132.91 243.91   A 0.78 0.78 0.0 0 1 133.69 243.13   L 138.82 243.13   A 0.71 0.70 -0.0 0 0 139.53 242.43   L 139.53 239.81   A 0.77 0.77 0.0 0 0 138.78 239.04   Q 134.90 238.98 130.55 238.97   Q 126.20 239.01 122.32 239.11   A 0.77 0.77 0.0 0 0 121.57 239.88   L 121.59 242.50   A 0.71 0.70 -0.4 0 0 122.30 243.19   L 127.43 243.15   A 0.78 0.78 0.0 0 1 128.22 243.93   L 128.35 261.42   A 0.59 0.59 0.0 0 0 128.92 262.00   Q 129.85 262.03 130.63 262.03   Z   M 146.1788 239.7240   A 0.67 0.67 0.0 0 0 145.5100 239.0529   L 142.2500 239.0472   A 0.67 0.67 0.0 0 0 141.5788 239.7160   L 141.5412 261.2960   A 0.67 0.67 0.0 0 0 142.2100 261.9671   L 145.4700 261.9728   A 0.67 0.67 0.0 0 0 146.1412 261.3040   L 146.1788 239.7240   Z   M 189.74 239.76   A 0.71 0.71 0.0 0 0 189.03 239.05   L 174.28 239.05   A 0.71 0.71 0.0 0 0 173.57 239.76   L 173.57 261.30   A 0.71 0.71 0.0 0 0 174.28 262.01   L 189.43 262.01   A 0.71 0.71 0.0 0 0 190.14 261.30   L 190.14 258.62   A 0.71 0.71 0.0 0 0 189.43 257.91   L 178.70 257.91   A 0.71 0.71 0.0 0 1 177.99 257.20   L 177.99 252.67   A 0.71 0.71 0.0 0 1 178.70 251.96   L 188.03 251.96   A 0.71 0.71 0.0 0 0 188.74 251.25   L 188.74 248.71   A 0.71 0.71 0.0 0 0 188.03 248.00   L 178.71 248.00   A 0.71 0.71 0.0 0 1 178.00 247.29   L 178.00 243.81   A 0.71 0.71 0.0 0 1 178.71 243.10   L 189.03 243.10   A 0.71 0.71 0.0 0 0 189.74 242.39   L 189.74 239.76   Z   M 210.94 261.96   A 0.23 0.23 0.0 0 0 211.17 261.70   L 210.23 253.43   A 2.07 2.06 11.7 0 0 209.21 251.88   L 208.82 251.65   A 0.65 0.65 0.0 0 1 208.74 250.58   C 213.42 246.85 211.25 239.32 204.76 239.15   Q 196.26 238.94 194.32 239.09   A 0.64 0.63 88.1 0 0 193.73 239.73   L 193.73 261.41   A 0.79 0.79 0.0 0 0 194.61 262.20   L 197.78 261.84   A 0.60 0.60 0.0 0 0 198.31 261.24   L 198.31 254.52   A 1.53 1.53 0.0 0 1 199.84 252.99   L 203.26 252.99   A 2.44 2.43 -3.2 0 1 205.68 255.15   L 206.43 261.65   A 0.34 0.34 0.0 0 0 206.77 261.96   L 210.94 261.96   Z   M 156.82 293.78   C 157.06 292.29 157.61 289.54 159.44 289.46   Q 160.64 289.40 161.65 290.36   Q 164.10 292.69 162.51 294.88   A 1.10 1.09 49.9 0 0 162.42 296.00   L 162.90 296.95   A 0.90 0.90 0.0 0 1 161.48 298.00   Q 160.84 297.39 160.39 296.47   A 0.71 0.70 58.1 0 0 159.32 296.22   Q 156.92 298.09 157.34 300.70   C 157.66 302.77 160.55 303.44 162.18 302.94   Q 164.12 302.34 164.14 302.34   A 0.75 0.75 0.0 0 1 164.94 302.78   Q 165.55 304.21 167.20 305.86   A 0.83 0.82 -47.3 0 0 168.41 305.81   L 170.96 302.84   A 0.68 0.68 0.0 0 1 171.81 302.70   C 176.84 305.64 180.83 299.87 175.93 296.44   A 0.68 0.67 -52.3 0 0 175.03 296.56   L 173.87 297.91   A 0.72 0.72 0.0 0 1 172.63 297.25   Q 173.04 295.72 172.76 294.59   C 171.80 290.81 177.41 287.72 178.27 291.77   Q 178.67 293.61 178.73 294.56   A 0.41 0.41 0.0 0 0 179.34 294.89   C 181.29 293.80 183.70 291.92 184.18 289.54   C 185.32 283.86 181.33 278.67 175.09 281.08   A 0.51 0.50 -23.2 0 1 174.46 280.83   L 168.65 269.18   A 0.50 0.49 46.9 0 0 167.78 269.15   L 161.45 280.12   A 0.95 0.95 0.0 0 1 160.41 280.57   Q 156.39 279.68 153.32 282.10   A 2.14 2.08 -6.8 0 0 152.73 282.83   Q 149.45 289.50 156.01 294.12   A 0.52 0.52 0.0 0 0 156.82 293.78   Z"
     id="path94" />
  <path
     fill="#251f1d"
     d="   M 237.45 156.89   A 0.25 0.25 0.0 0 0 237.09 157.20   Q 240.03 164.54 241.87 170.37   Q 243.59 175.85 242.65 178.95   A 0.87 0.84 88.1 0 1 242.14 179.51   Q 241.13 179.90 240.46 178.32   A 0.47 0.46 -60.0 0 0 239.57 178.56   Q 240.74 188.07 237.34 196.93   A 0.74 0.74 0.0 0 1 235.98 196.97   Q 235.55 196.06 234.98 195.58   A 0.35 0.35 0.0 0 0 234.40 195.84   Q 234.22 202.38 231.00 208.51   A 0.59 0.59 0.0 0 1 229.95 208.50   L 229.20 206.99   A 0.23 0.23 0.0 0 0 228.78 207.02   L 227.60 210.16   A 1.52 1.43 80.0 0 1 227.24 210.71   L 216.17 221.79   A 1.00 1.00 0.0 0 1 214.49 221.34   Q 213.94 219.28 212.61 218.45   A 0.94 0.93 35.9 0 0 211.40 218.64   L 203.47 227.88   A 0.14 0.14 0.0 0 1 203.25 227.87   Q 201.47 225.05 199.79 222.80   C 197.61 219.87 191.27 221.14 188.29 222.08   A 0.61 0.60 -28.0 0 0 187.99 223.03   L 189.81 225.34   A 0.45 0.44 -9.3 0 1 189.31 226.03   Q 184.76 224.41 180.16 227.16   A 0.38 0.37 -45.3 0 0 180.16 227.81   L 180.57 228.05   A 0.44 0.44 0.0 0 1 180.52 228.83   Q 176.15 230.64 172.63 230.62   A 0.28 0.27 -3.6 0 0 172.35 230.93   Q 172.35 230.95 172.36 231.09   A 0.67 0.67 0.0 0 1 171.33 231.75   L 168.73 230.08   A 0.72 0.71 -47.4 0 0 167.91 230.12   L 165.08 232.35   A 0.65 0.64 -8.9 0 1 164.07 231.62   L 164.30 231.00   A 0.50 0.49 -85.1 0 0 163.75 230.34   Q 159.60 231.07 155.12 228.76   A 0.46 0.46 0.0 0 1 154.89 228.21   Q 155.47 226.42 153.64 225.90   Q 150.26 224.93 146.71 225.80   A 0.53 0.53 0.0 0 1 146.18 224.94   L 147.80 223.05   A 0.60 0.59 29.4 0 0 147.53 222.10   C 141.80 220.22 135.25 220.73 131.52 226.31   A 0.66 0.65 33.4 0 1 130.61 226.49   Q 130.16 226.19 124.25 222.78   Q 123.39 222.29 119.72 217.55   A 0.39 0.39 0.0 0 0 119.08 217.59   L 117.12 220.99   A 0.82 0.81 53.2 0 1 115.62 220.77   C 114.49 216.18 112.39 209.80 109.22 206.67   C 107.99 205.46 105.64 206.10 104.06 205.41   A 1.53 1.52 88.2 0 1 103.30 204.69   Q 100.65 199.35 100.53 196.76   Q 100.34 193.04 99.71 190.23   A 0.82 0.81 -27.5 0 0 98.37 189.81   Q 97.38 190.70 97.16 191.31   A 0.83 0.83 0.0 0 1 95.57 191.24   Q 95.20 189.83 95.45 186.75   Q 95.87 181.42 97.14 168.64   A 0.43 0.43 0.0 0 0 96.45 168.26   L 92.47 171.40   A 0.53 0.53 0.0 0 1 91.61 170.92   Q 92.19 165.49 95.75 158.39   A 0.70 0.70 0.0 0 0 95.05 157.38   L 93.16 157.60   A 0.48 0.48 0.0 0 1 92.63 157.07   Q 93.05 153.79 93.67 152.68   C 96.66 147.30 98.48 144.13 100.49 139.42   C 102.42 134.92 103.58 131.70 106.13 128.63   Q 108.31 126.00 109.86 124.20   A 0.87 0.86 -61.9 0 0 109.44 122.80   C 107.04 122.14 106.64 118.67 106.04 116.65   Q 105.56 115.03 103.86 113.52   Q 101.12 111.11 100.15 107.38   Q 97.59 97.57 103.61 90.87   Q 106.45 87.71 109.76 86.81   C 114.30 85.57 122.01 88.59 125.59 91.25   C 130.32 94.75 132.60 97.82 137.97 95.74   Q 163.85 85.68 190.97 93.81   Q 192.74 94.35 199.17 96.37   Q 200.89 96.91 203.96 95.76   A 2.87 2.87 0.0 0 0 204.63 95.39   C 210.41 91.01 213.40 88.83 219.59 87.08   Q 225.06 85.53 229.10 88.10   Q 237.85 93.65 236.17 104.74   Q 235.22 110.95 231.11 114.36   A 3.82 3.77 79.3 0 0 229.91 116.14   C 229.04 118.84 228.98 121.59 225.89 123.11   A 0.50 0.49 -33.2 0 0 225.73 123.87   Q 228.84 127.57 230.32 129.41   Q 236.91 137.56 239.43 147.22   A 0.57 0.57 0.0 0 1 238.59 147.86   L 236.85 146.86   A 0.22 0.22 0.0 0 0 236.54 147.15   L 241.88 157.87   A 0.74 0.74 0.0 0 1 240.84 158.84   L 237.45 156.89   Z   M 114.55 120.83   Q 115.54 120.77 115.28 121.94   C 114.45 125.72 107.31 125.70 106.15 130.64   A 0.45 0.45 0.0 0 0 106.75 131.17   L 110.09 129.92   A 0.47 0.47 0.0 0 1 110.68 130.57   Q 110.33 131.27 109.84 131.59   Q 106.66 133.65 103.80 136.76   Q 103.07 137.56 103.12 138.36   A 0.33 0.33 0.0 0 0 103.67 138.58   Q 105.35 137.12 107.56 136.31   A 0.48 0.48 0.0 0 1 108.09 137.08   L 102.56 143.53   A 0.45 0.45 0.0 0 0 103.10 144.23   L 105.12 143.22   A 0.37 0.37 0.0 0 1 105.55 143.80   C 103.41 146.10 100.93 147.35 99.80 150.34   Q 99.25 150.73 99.00 151.34   A 0.32 0.32 0.0 0 0 99.39 151.76   Q 103.12 150.73 104.53 151.10   A 1.05 1.05 0.0 0 1 105.02 152.85   C 100.96 156.96 97.91 159.03 97.14 163.33   A 0.40 0.39 -5.4 0 0 97.67 163.76   L 101.19 162.45   A 0.27 0.26 85.1 0 1 101.54 162.75   L 99.70 172.44   A 0.50 0.50 0.0 0 0 100.55 172.89   L 103.09 170.34   A 0.38 0.38 0.0 0 1 103.70 170.77   C 103.16 171.94 102.51 173.54 101.74 174.44   Q 98.87 177.82 99.36 183.64   A 0.21 0.21 0.0 0 0 99.77 183.70   L 100.02 183.03   A 0.83 0.83 0.0 0 1 101.57 183.02   C 103.12 186.95 102.96 191.59 103.34 195.63   Q 103.43 196.58 104.06 197.61   A 0.68 0.68 0.0 0 0 105.13 197.74   L 108.38 194.49   A 0.55 0.55 0.0 0 1 109.31 194.81   Q 110.19 201.55 114.42 207.12   A 0.25 0.25 0.0 0 0 114.86 207.01   L 115.16 205.45   A 0.55 0.55 0.0 0 1 116.20 205.31   C 117.56 208.14 117.68 211.52 120.56 213.98   A 0.34 0.34 0.0 0 0 121.12 213.78   L 121.52 211.69   A 0.54 0.54 0.0 0 1 122.36 211.35   Q 123.64 212.28 124.42 213.35   Q 127.79 218.02 129.66 220.30   A 0.58 0.58 0.0 0 0 130.65 220.14   L 131.86 216.92   A 0.52 0.51 29.1 0 1 132.66 216.70   C 135.19 218.64 140.10 217.81 143.40 217.33   A 1.73 1.71 20.9 0 0 144.22 216.97   C 147.04 214.70 146.74 212.29 143.68 210.31   C 140.56 208.30 132.01 205.27 129.19 209.30   A 0.30 0.30 0.0 0 1 128.64 209.11   Q 128.78 205.37 127.42 203.39   A 0.81 0.80 23.9 0 0 125.96 203.95   Q 126.09 204.90 125.85 205.36   A 0.31 0.31 0.0 0 1 125.29 205.35   Q 123.76 202.19 124.09 199.74   A 0.25 0.24 -25.2 0 0 123.64 199.58   Q 122.71 201.00 122.05 203.40   A 1.30 1.22 -67.4 0 1 120.22 204.23   Q 120.05 204.13 119.89 203.31   Q 119.76 202.63 119.49 199.83   Q 119.39 198.76 118.94 198.60   Q 118.30 198.38 117.83 198.74   A 0.64 0.63 -2.0 0 1 116.91 197.89   L 118.36 195.72   A 0.30 0.29 6.6 0 0 118.01 195.28   Q 116.10 195.98 115.25 196.89   A 0.53 0.53 0.0 0 1 114.33 196.58   Q 114.19 194.99 114.86 192.93   A 0.36 0.36 0.0 0 0 114.38 192.49   Q 113.03 193.05 111.98 194.02   A 0.27 0.27 0.0 0 1 111.55 193.73   L 113.82 187.69   A 0.76 0.76 0.0 0 0 113.17 186.67   Q 111.63 186.55 109.81 187.10   A 0.50 0.50 0.0 0 1 109.38 186.22   Q 112.58 183.94 116.73 185.24   Q 117.88 185.60 120.65 188.61   C 123.44 191.63 127.82 192.75 132.03 193.54   A 3.59 3.58 -10.8 0 1 134.38 195.13   Q 136.20 198.00 136.83 198.67   C 140.00 202.07 147.14 201.69 151.51 201.42   A 0.34 0.33 18.2 0 1 151.79 201.97   C 150.17 203.87 145.07 203.06 142.98 202.48   A 0.69 0.69 0.0 0 0 142.16 203.41   Q 143.25 206.11 145.78 207.76   C 151.41 211.44 170.23 206.86 166.62 197.50   C 165.84 195.49 163.02 194.00 161.95 192.36   Q 159.76 189.00 159.03 188.42   A 2.32 2.25 -19.3 0 0 158.08 187.98   C 154.28 187.18 151.91 186.16 152.07 181.49   Q 152.13 180.06 153.00 178.98   A 0.37 0.37 0.0 0 1 153.66 179.17   L 153.92 181.45   A 1.15 1.15 0.0 0 0 155.54 182.37   C 158.54 180.99 160.21 180.15 163.91 181.06   Q 169.59 182.45 174.63 180.60   A 2.43 2.41 -44.4 0 1 176.32 180.61   L 180.21 182.07   A 1.40 1.39 -74.3 0 0 182.07 181.02   L 182.41 179.25   A 0.38 0.38 0.0 0 1 183.10 179.12   Q 184.03 180.54 184.14 182.36   Q 183.58 187.02 179.52 187.77   C 175.24 188.56 174.87 192.29 171.73 194.72   C 168.49 197.22 168.16 199.71 169.65 203.03   A 2.45 2.43 -83.1 0 0 170.39 203.98   C 176.88 209.11 186.12 211.78 193.30 205.81   Q 194.46 204.84 194.64 203.15   A 0.47 0.47 0.0 0 0 194.12 202.63   C 190.69 203.04 188.09 203.79 185.18 202.18   A 0.36 0.36 0.0 0 1 185.34 201.51   C 188.92 201.31 193.24 200.89 196.94 199.03   C 200.01 197.49 202.58 194.03 204.93 192.40   A 7.70 7.66 19.2 0 1 207.12 191.35   C 210.85 190.24 215.11 189.32 216.70 187.40   Q 219.39 184.17 220.53 182.84   A 0.57 0.56 -33.2 0 1 221.50 183.04   Q 222.75 187.05 220.79 191.57   A 0.39 0.38 33.7 0 1 220.17 191.69   Q 220.16 191.68 219.96 191.44   A 0.45 0.45 0.0 0 0 219.23 191.49   L 215.40 197.90   A 1.08 1.00 87.6 0 1 215.18 198.16   Q 210.62 202.35 208.26 207.89   A 0.41 0.41 0.0 0 1 207.50 207.87   L 206.28 204.63   A 0.40 0.39 -38.4 0 0 205.58 204.55   L 200.80 211.70   A 0.43 0.43 0.0 0 1 200.03 211.56   Q 199.60 209.83 199.22 209.40   A 1.27 1.27 0.0 0 0 197.21 209.53   L 192.36 216.80   A 0.30 0.30 0.0 0 0 192.62 217.27   C 196.64 217.13 200.62 216.41 203.36 220.54   A 0.84 0.84 0.0 0 0 204.63 220.69   Q 209.45 216.29 212.05 209.98   A 0.45 0.45 0.0 0 1 212.87 209.95   L 214.28 212.79   A 0.52 0.51 -44.7 0 0 215.20 212.79   Q 216.24 210.74 216.35 208.21   A 0.32 0.32 0.0 0 1 216.90 207.99   L 218.72 209.81   A 0.60 0.60 0.0 0 0 219.67 209.67   Q 221.91 205.53 221.24 200.64   A 0.25 0.25 0.0 0 1 221.72 200.49   L 224.16 205.39   A 0.72 0.71 37.2 0 0 225.50 205.21   L 227.07 196.93   A 0.70 0.70 0.0 0 1 228.38 196.75   L 229.20 198.38   A 0.60 0.59 41.7 0 0 230.29 198.32   Q 232.02 193.50 231.78 187.81   A 0.49 0.49 0.0 0 1 232.71 187.57   L 233.96 190.06   A 0.39 0.38 39.3 0 0 234.68 189.99   Q 235.22 187.85 235.04 187.01   Q 233.80 181.44 233.40 179.27   A 0.41 0.41 0.0 0 1 234.04 178.86   Q 234.92 179.46 235.71 180.58   A 0.41 0.41 0.0 0 0 236.45 180.35   Q 236.63 174.51 233.92 168.30   C 233.40 167.12 232.30 165.75 231.77 164.74   A 0.63 0.62 -86.9 0 1 232.67 163.93   L 235.81 166.02   A 0.25 0.25 0.0 0 0 236.20 165.82   Q 236.29 163.19 235.57 161.70   Q 232.62 155.62 231.42 151.64   L 236.57 152.99   A 0.42 0.42 0.0 0 0 237.07 152.43   C 235.76 149.03 232.55 146.08 230.33 143.76   A 0.39 0.39 0.0 0 1 230.83 143.16   L 232.51 144.29   A 0.43 0.43 0.0 0 0 233.08 143.67   L 227.98 137.19   A 0.56 0.55 -3.9 0 1 228.70 136.37   L 231.91 138.22   A 0.33 0.33 0.0 0 0 232.40 137.84   Q 232.14 136.96 231.29 136.10   Q 228.34 133.11 225.58 131.26   A 0.57 0.57 0.0 0 1 225.39 130.52   L 225.40 130.49   A 0.74 0.74 0.0 0 1 226.26 130.18   L 229.03 131.11   A 0.36 0.36 0.0 0 0 229.47 130.62   Q 228.31 128.04 227.20 127.29   Q 224.28 125.35 221.27 123.33   A 1.95 1.93 4.9 0 1 220.57 122.51   Q 219.99 121.18 220.94 120.90   Q 223.35 121.59 225.05 119.90   Q 225.98 118.96 225.80 117.40   C 225.29 112.96 229.50 110.11 232.15 106.89   C 237.73 100.11 231.65 88.99 223.11 88.90   C 216.31 88.83 212.22 94.52 210.64 100.61   Q 210.26 102.08 207.40 103.48   L 207.05 103.47   A 0.48 0.48 0.0 0 1 206.65 102.75   L 211.11 95.02   A 0.37 0.36 -4.7 0 0 210.56 94.56   Q 206.83 97.55 205.79 99.07   Q 203.79 101.99 202.97 102.76   A 0.54 0.54 0.0 0 1 202.08 102.26   L 202.36 100.77   A 0.51 0.50 2.5 0 0 201.81 100.18   L 197.21 100.71   A 0.34 0.34 0.0 0 1 196.86 100.51   Q 196.73 100.22 196.94 100.07   A 0.86 0.75 27.2 0 0 196.38 98.68   Q 194.75 98.48 192.85 98.85   Q 192.53 98.91 192.22 98.73   Q 191.84 98.52 191.75 98.24   A 0.24 0.24 0.0 0 1 192.01 97.92   Q 192.03 97.92 192.28 97.90   A 0.08 0.08 0.0 0 0 192.30 97.74   Q 188.84 96.52 182.04 94.50   Q 176.63 92.88 171.48 95.84   A 0.94 0.94 0.0 0 0 171.33 97.36   Q 173.44 99.21 176.30 99.34   C 183.65 99.69 188.44 98.87 192.54 102.43   A 0.58 0.58 0.0 0 1 192.05 103.43   L 190.12 103.06   A 0.47 0.47 0.0 0 0 189.79 103.93   C 192.72 105.61 197.47 107.99 198.80 111.16   A 0.35 0.34 -80.2 0 1 198.25 111.55   Q 191.24 105.09 181.22 102.55   A 1.81 1.77 32.2 0 0 179.68 102.88   L 177.02 104.98   A 1.75 1.74 -49.0 0 1 175.07 105.12   L 171.82 103.24   A 1.03 1.03 0.0 0 0 170.71 103.29   Q 169.21 104.32 169.12 106.70   A 1.07 1.06 -66.5 0 0 169.43 107.50   L 173.20 111.26   A 0.62 0.61 37.6 0 0 174.17 111.14   L 174.87 109.91   A 0.77 0.76 21.2 0 1 175.70 109.55   Q 178.50 110.20 187.23 111.47   Q 191.53 112.10 192.86 116.33   Q 190.64 116.11 188.41 115.21   Q 186.27 114.35 184.94 114.48   Q 183.11 114.67 181.47 115.51   C 178.17 115.97 177.65 114.40 175.24 112.96   A 1.34 1.34 0.0 0 0 174.26 112.81   C 172.01 113.34 169.15 114.62 168.51 111.17   A 0.36 0.36 0.0 0 0 167.90 110.98   Q 167.80 111.07 167.70 111.59   C 167.27 113.79 165.25 113.75 163.03 112.94   C 159.59 111.68 159.32 116.44 155.54 115.37   Q 151.46 114.22 149.49 115.20   Q 145.17 117.37 141.26 116.79   Q 150.02 110.66 160.44 109.09   A 0.87 0.87 0.0 0 1 161.34 109.56   L 162.19 111.25   A 0.69 0.69 0.0 0 0 163.38 111.32   Q 164.51 109.62 166.51 108.41   A 0.73 0.73 0.0 0 0 166.85 107.62   Q 166.28 105.15 165.22 104.01   A 2.74 2.67 -36.1 0 0 161.89 103.54   Q 160.40 104.38 159.16 104.79   A 2.48 2.38 39.6 0 1 158.05 104.87   Q 154.84 104.36 153.77 104.55   Q 147.12 105.73 140.63 109.83   Q 139.14 110.78 137.48 110.61   A 0.92 0.92 0.0 0 1 136.88 109.10   C 138.99 106.65 143.01 105.83 145.20 103.97   A 0.20 0.20 0.0 0 0 145.05 103.62   L 140.08 104.19   A 0.34 0.34 0.0 0 1 139.82 103.59   C 142.79 100.98 147.66 100.18 151.60 99.87   C 156.50 99.49 161.31 98.31 165.10 96.60   A 0.44 0.43 -37.5 0 0 165.20 95.87   C 162.36 93.53 158.73 93.46 155.00 94.03   Q 147.41 95.17 140.36 97.58   Q 135.56 99.22 134.77 103.88   A 1.08 1.08 0.0 0 1 132.66 103.95   Q 132.40 102.86 132.40 102.18   C 132.39 100.46 131.14 99.20 129.85 98.31   A 0.20 0.20 0.0 0 0 129.55 98.54   L 130.12 100.05   A 0.31 0.31 0.0 0 1 129.61 100.38   L 122.70 93.48   A 0.02 0.02 0.0 0 0 122.66 93.50   Q 124.64 99.11 127.89 103.42   Q 124.26 103.02 123.51 100.75   C 122.13 96.58 119.91 91.99 115.81 90.01   C 106.77 85.61 101.28 96.34 101.52 103.48   C 101.66 107.97 105.03 109.44 107.06 112.19   A 4.25 4.18 -70.4 0 1 107.77 113.72   C 108.57 117.16 109.25 122.56 114.55 120.83   Z   M 168.04 182.61   C 163.43 182.61 159.67 179.51 155.93 183.22   A 0.98 0.98 0.0 0 0 156.81 184.87   Q 161.92 183.85 164.41 188.08   Q 165.48 189.89 164.11 192.19   A 0.72 0.71 40.7 0 0 164.18 193.03   Q 165.68 194.76 167.77 193.93   Q 167.94 193.86 168.04 193.86   Q 168.13 193.86 168.30 193.93   Q 170.39 194.76 171.89 193.03   A 0.72 0.71 -40.7 0 0 171.96 192.19   Q 170.59 189.89 171.66 188.08   Q 174.15 183.85 179.26 184.87   A 0.98 0.98 0.0 0 0 180.14 183.22   C 176.40 179.51 172.65 182.61 168.04 182.61   Z   M 153.84 217.36   Q 158.47 217.23 161.11 219.46   C 164.57 222.38 166.84 222.80 171.18 221.84   Q 172.06 221.65 174.80 219.39   Q 177.91 216.83 182.67 217.46   A 0.21 0.20 88.9 0 0 182.90 217.22   L 181.81 211.22   A 0.49 0.47 3.2 0 0 181.45 210.84   Q 178.13 210.06 174.74 209.05   Q 172.88 208.50 170.96 208.98   Q 167.71 209.79 164.69 208.63   C 161.16 207.28 158.20 209.62 155.96 210.12   A 0.64 0.64 0.0 0 0 155.46 210.80   Q 155.72 213.80 153.48 216.63   A 0.45 0.45 0.0 0 0 153.84 217.36   Z"
     id="path95" />
  <path
     fill="#fefefe"
     d="   M 127.89 103.42   L 131.04 106.51   A 0.46 0.46 0.0 0 1 130.77 107.29   L 123.45 108.12   A 0.55 0.55 0.0 0 0 123.41 109.20   L 124.47 109.40   A 0.45 0.45 0.0 0 1 124.61 110.23   L 116.58 114.98   A 0.04 0.04 0.0 0 0 116.57 115.03   L 116.83 115.47   A 0.31 0.31 0.0 0 0 117.27 115.58   Q 119.31 114.27 121.49 114.79   A 0.50 0.50 0.0 0 1 121.58 115.74   C 118.70 117.03 116.49 117.24 114.55 120.83   C 109.25 122.56 108.57 117.16 107.77 113.72   A 4.25 4.18 -70.4 0 0 107.06 112.19   C 105.03 109.44 101.66 107.97 101.52 103.48   C 101.28 96.34 106.77 85.61 115.81 90.01   C 119.91 91.99 122.13 96.58 123.51 100.75   Q 124.26 103.02 127.89 103.42   Z   M 109.40 100.74   Q 109.54 98.81 112.25 96.76   A 0.26 0.26 0.0 0 0 112.06 96.29   C 107.46 96.89 103.10 99.78 107.07 104.89   C 108.42 106.63 111.17 107.77 112.33 111.42   A 1.36 1.35 -41.7 0 1 112.27 112.40   Q 111.63 113.78 111.79 115.03   A 1.42 1.41 -84.4 0 0 112.75 116.20   L 112.85 116.23   A 0.68 0.67 9.1 0 0 113.74 115.59   C 113.73 112.25 116.75 113.45 118.79 111.96   A 0.47 0.47 0.0 0 0 118.51 111.11   L 117.65 111.11   A 0.56 0.55 24.4 0 1 117.28 110.14   Q 117.87 109.63 119.34 109.57   A 0.51 0.51 0.0 0 0 119.60 108.64   L 118.23 107.73   A 0.38 0.38 0.0 0 1 118.44 107.04   L 121.77 107.04   A 0.44 0.44 0.0 0 0 122.20 106.49   Q 121.62 104.29 120.06 103.15   A 1.94 1.91 65.2 0 0 119.13 102.80   L 115.92 102.52   A 0.32 0.32 0.0 0 1 115.79 101.93   Q 117.33 101.00 119.49 100.84   A 0.46 0.46 0.0 0 0 119.56 99.93   Q 115.46 98.95 113.11 100.87   A 0.22 0.21 -3.6 0 1 112.79 100.59   Q 113.84 98.89 116.08 97.97   A 0.27 0.27 0.0 0 0 115.97 97.45   Q 111.51 97.60 109.88 100.87   A 0.25 0.25 0.0 0 1 109.40 100.74   Z"
     id="path96" />
  <path
     fill="#fefefe"
     d="   M 220.94 120.90   Q 218.68 116.87 214.36 116.01   A 0.69 0.69 0.0 0 1 214.34 114.66   Q 216.27 114.23 218.22 115.45   A 0.24 0.23 -59.8 0 0 218.55 115.36   L 218.73 115.06   A 0.20 0.19 29.7 0 0 218.65 114.79   L 211.10 110.43   A 0.58 0.58 0.0 0 1 211.19 109.38   Q 211.62 109.22 212.02 109.23   A 0.48 0.48 0.0 0 0 212.44 108.49   Q 211.10 106.43 206.17 105.59   A 0.29 0.28 25.3 0 1 206.00 105.13   L 207.40 103.48   Q 210.26 102.08 210.64 100.61   C 212.22 94.52 216.31 88.83 223.11 88.90   C 231.65 88.99 237.73 100.11 232.15 106.89   C 229.50 110.11 225.29 112.96 225.80 117.40   Q 225.98 118.96 225.05 119.90   Q 223.35 121.59 220.94 120.90   Z   M 220.08 102.28   Q 215.57 101.94 213.32 105.90   A 0.84 0.84 0.0 0 0 214.22 107.13   Q 215.80 106.79 217.06 106.95   A 0.44 0.43 36.8 0 1 217.18 107.78   Q 216.64 108.01 215.90 108.93   A 0.34 0.34 0.0 0 0 216.17 109.48   Q 217.66 109.46 218.55 110.28   A 0.33 0.33 0.0 0 1 218.45 110.83   L 216.97 111.38   A 0.36 0.36 0.0 0 0 216.97 112.06   L 221.00 113.57   A 0.75 0.75 0.0 0 1 221.42 113.99   L 222.18 116.02   A 0.65 0.65 0.0 0 0 223.39 116.02   L 223.75 115.06   A 2.05 2.03 43.8 0 0 223.71 113.53   C 221.18 107.66 232.00 105.09 229.16 99.16   Q 226.15 92.87 219.48 96.13   A 0.30 0.29 -55.4 0 0 219.58 96.69   Q 222.07 96.91 223.37 98.08   A 0.33 0.33 0.0 0 1 223.05 98.64   Q 218.61 97.30 214.73 100.30   A 0.32 0.32 0.0 0 0 214.95 100.87   Q 218.22 100.64 220.23 101.81   A 0.25 0.25 0.0 0 1 220.08 102.28   Z"
     id="path97" />
  <path
     fill="#f48c2b"
     d="   M 141.26 116.79   L 136.93 118.05   A 0.33 0.32 -5.4 0 0 136.69 118.33   Q 136.64 118.73 137.03 118.89   A 0.40 0.40 0.0 0 1 137.19 119.49   Q 136.59 120.30 134.38 120.22   A 0.76 0.75 84.4 0 0 133.62 121.15   Q 133.81 121.96 134.26 122.64   A 0.75 0.74 -39.6 0 1 134.17 123.57   Q 131.36 126.47 129.87 130.32   Q 126.02 133.96 129.40 139.11   A 0.62 0.62 0.0 0 1 129.22 139.97   Q 126.46 141.75 127.10 145.61   A 0.39 0.38 -29.1 0 0 127.77 145.80   L 128.15 145.36   A 0.59 0.59 0.0 0 1 129.05 145.36   Q 130.32 146.90 130.87 147.89   C 132.62 151.04 136.15 152.65 139.50 153.49   A 3.29 3.21 73.4 0 1 140.97 154.31   L 144.78 158.00   Q 147.65 158.11 148.75 157.06   Q 148.79 158.50 149.83 158.96   A 1.09 1.09 0.0 0 0 150.76 158.94   Q 154.46 157.10 154.61 152.80   Q 157.00 151.20 156.97 148.00   Q 156.93 143.32 156.86 139.29   Q 158.42 140.52 158.78 137.61   Q 158.99 135.84 158.22 134.38   Q 157.30 132.63 157.17 131.62   A 6.91 6.60 43.7 0 1 157.12 130.52   Q 157.14 129.95 158.57 125.03   Q 159.04 123.43 157.95 122.68   Q 158.21 122.15 158.32 121.40   A 0.68 0.66 8.3 0 0 157.75 120.65   Q 157.35 120.59 156.88 121.37   Q 156.77 121.55 156.52 121.51   Q 156.32 121.47 156.19 121.27   Q 156.01 120.98 156.12 120.68   Q 156.71 119.14 157.80 117.99   A 0.64 0.64 0.0 0 0 157.30 116.91   Q 155.59 117.01 155.54 115.37   C 159.32 116.44 159.59 111.68 163.03 112.94   C 165.25 113.75 167.27 113.79 167.70 111.59   Q 167.80 111.07 167.90 110.98   A 0.36 0.36 0.0 0 1 168.51 111.17   C 169.15 114.62 172.01 113.34 174.26 112.81   A 1.34 1.34 0.0 0 1 175.24 112.96   C 177.65 114.40 178.17 115.97 181.47 115.51   L 180.52 120.61   A 0.30 0.29 50.7 0 1 179.93 120.54   Q 179.93 120.43 179.71 120.38   A 0.18 0.17 -74.3 0 0 179.50 120.50   L 178.77 122.53   Q 177.22 122.60 177.43 125.13   C 177.63 127.66 179.26 130.06 178.90 132.51   Q 178.72 133.75 178.02 136.52   A 2.07 1.97 45.9 0 0 178.03 137.51   Q 178.33 138.69 179.12 139.73   A 0.47 0.46 -48.6 0 0 179.89 139.68   L 181.16 137.49   Q 181.02 140.02 180.23 142.44   A 4.39 4.27 57.2 0 0 180.02 143.49   Q 179.79 146.48 179.81 149.42   Q 179.83 152.24 182.16 152.62   Q 181.92 157.12 185.83 158.89   Q 187.77 159.77 188.00 156.74   C 189.30 156.95 190.17 157.80 191.32 157.93   Q 192.72 158.10 192.65 157.36   Q 195.18 154.50 196.34 154.06   C 200.78 152.38 203.83 151.16 206.48 146.97   Q 207.38 145.55 207.98 145.59   Q 208.97 145.66 210.07 146.55   A 0.32 0.32 0.0 0 0 210.58 146.23   Q 209.84 142.78 207.00 140.67   A 0.62 0.62 0.0 0 1 206.86 139.82   C 208.70 137.11 207.97 134.27 207.44 131.24   A 0.77 0.76 7.9 0 0 207.02 130.69   Q 206.23 130.32 205.61 130.96   Q 205.94 126.16 201.39 123.50   A 0.53 0.53 0.0 0 1 201.39 122.59   L 203.11 121.60   A 0.28 0.28 0.0 0 0 203.02 121.08   L 197.99 120.13   A 0.48 0.47 -64.3 0 1 197.72 119.35   L 198.70 118.21   A 0.33 0.33 0.0 0 0 198.40 117.67   Q 196.86 117.89 195.00 118.23   Q 194.88 118.25 196.22 115.90   A 0.34 0.34 0.0 0 0 195.97 115.39   Q 193.85 115.12 192.86 116.33   Q 191.53 112.10 187.23 111.47   Q 178.50 110.20 175.70 109.55   A 0.77 0.76 21.2 0 0 174.87 109.91   L 174.17 111.14   A 0.62 0.61 37.6 0 1 173.20 111.26   L 169.43 107.50   A 1.07 1.06 -66.5 0 1 169.12 106.70   Q 169.21 104.32 170.71 103.29   A 1.03 1.03 0.0 0 1 171.82 103.24   L 175.07 105.12   A 1.75 1.74 -49.0 0 0 177.02 104.98   L 179.68 102.88   A 1.81 1.77 32.2 0 1 181.22 102.55   Q 191.24 105.09 198.25 111.55   A 0.35 0.34 -80.2 0 0 198.80 111.16   C 197.47 107.99 192.72 105.61 189.79 103.93   A 0.47 0.47 0.0 0 1 190.12 103.06   L 192.05 103.43   A 0.58 0.58 0.0 0 0 192.54 102.43   C 188.44 98.87 183.65 99.69 176.30 99.34   Q 173.44 99.21 171.33 97.36   A 0.94 0.94 0.0 0 1 171.48 95.84   Q 176.63 92.88 182.04 94.50   Q 188.84 96.52 192.30 97.74   A 0.08 0.08 0.0 0 1 192.28 97.90   Q 192.03 97.92 192.01 97.92   A 0.24 0.24 0.0 0 0 191.75 98.24   Q 191.84 98.52 192.22 98.73   Q 192.53 98.91 192.85 98.85   Q 194.75 98.48 196.38 98.68   A 0.86 0.75 27.2 0 1 196.94 100.07   Q 196.73 100.22 196.86 100.51   A 0.34 0.34 0.0 0 0 197.21 100.71   L 201.81 100.18   A 0.51 0.50 2.5 0 1 202.36 100.77   L 202.08 102.26   A 0.54 0.54 0.0 0 0 202.97 102.76   Q 203.79 101.99 205.79 99.07   Q 206.83 97.55 210.56 94.56   A 0.37 0.36 -4.7 0 1 211.11 95.02   L 206.65 102.75   A 0.48 0.48 0.0 0 0 207.05 103.47   L 207.40 103.48   L 206.00 105.13   A 0.29 0.28 25.3 0 0 206.17 105.59   Q 211.10 106.43 212.44 108.49   A 0.48 0.48 0.0 0 1 212.02 109.23   Q 211.62 109.22 211.19 109.38   A 0.58 0.58 0.0 0 0 211.10 110.43   L 218.65 114.79   A 0.20 0.19 29.7 0 1 218.73 115.06   L 218.55 115.36   A 0.24 0.23 -59.8 0 1 218.22 115.45   Q 216.27 114.23 214.34 114.66   A 0.69 0.69 0.0 0 0 214.36 116.01   Q 218.68 116.87 220.94 120.90   Q 219.99 121.18 220.57 122.51   A 1.95 1.93 4.9 0 0 221.27 123.33   Q 224.28 125.35 227.20 127.29   Q 228.31 128.04 229.47 130.62   A 0.36 0.36 0.0 0 1 229.03 131.11   L 226.26 130.18   A 0.74 0.74 0.0 0 0 225.40 130.49   L 225.39 130.52   A 0.57 0.57 0.0 0 0 225.58 131.26   Q 228.34 133.11 231.29 136.10   Q 232.14 136.96 232.40 137.84   A 0.33 0.33 0.0 0 1 231.91 138.22   L 228.70 136.37   A 0.56 0.55 -3.9 0 0 227.98 137.19   L 233.08 143.67   A 0.43 0.43 0.0 0 1 232.51 144.29   L 230.83 143.16   A 0.39 0.39 0.0 0 0 230.33 143.76   C 232.55 146.08 235.76 149.03 237.07 152.43   A 0.42 0.42 0.0 0 1 236.57 152.99   L 231.42 151.64   Q 230.55 148.13 226.61 145.97   A 0.57 0.57 0.0 0 1 226.31 145.47   Q 226.30 145.22 226.60 145.17   A 0.89 0.79 59.5 0 0 226.89 143.70   Q 225.93 142.80 224.87 141.12   A 0.20 0.20 0.0 0 1 225.13 140.83   Q 225.17 140.85 226.78 142.31   A 0.38 0.38 0.0 0 0 227.41 141.99   Q 227.27 140.51 226.15 139.07   Q 222.17 133.98 216.79 130.04   L 214.06 127.94   A 0.44 0.43 -84.9 0 0 213.41 128.49   L 216.00 133.55   Q 215.82 138.40 216.01 142.75   Q 216.24 148.20 211.80 153.26   Q 211.06 152.30 210.28 152.20   Q 209.32 152.08 209.01 153.25   C 208.65 154.61 208.03 155.25 206.59 155.78   Q 201.68 157.58 199.94 161.12   Q 196.21 163.14 194.44 167.15   A 1.32 1.32 0.0 0 1 193.84 167.78   Q 193.69 167.86 193.58 167.92   A 0.68 0.68 0.0 0 0 193.19 168.62   L 193.50 171.36   A 0.44 0.44 0.0 0 1 192.78 171.74   L 190.97 170.19   A 0.51 0.51 0.0 0 0 190.17 170.77   C 191.71 174.41 195.06 176.97 197.40 180.10   Q 198.60 181.70 198.08 184.62   Q 195.82 186.42 191.56 187.02   Q 188.29 187.49 185.79 190.67   Q 185.30 190.77 184.92 190.54   A 0.50 0.50 0.0 0 1 184.71 189.95   Q 186.26 185.50 184.14 182.36   Q 184.03 180.54 183.10 179.12   A 0.38 0.38 0.0 0 0 182.41 179.25   L 182.07 181.02   A 1.40 1.39 -74.3 0 1 180.21 182.07   L 176.32 180.61   A 2.43 2.41 -44.4 0 0 174.63 180.60   Q 169.59 182.45 163.91 181.06   C 160.21 180.15 158.54 180.99 155.54 182.37   A 1.15 1.15 0.0 0 1 153.92 181.45   L 153.66 179.17   A 0.37 0.37 0.0 0 0 153.00 178.98   Q 152.13 180.06 152.07 181.49   Q 150.50 182.42 150.58 184.77   Q 150.67 187.38 150.68 189.21   L 139.12 185.15   Q 137.55 180.62 140.52 176.00   Q 143.27 171.73 144.43 171.00   A 0.29 0.29 0.0 0 0 144.36 170.47   Q 143.44 170.20 141.85 170.45   A 0.57 0.57 0.0 0 1 141.26 169.60   L 142.63 167.23   A 0.52 0.52 0.0 0 0 142.12 166.45   L 139.79 166.72   A 0.32 0.32 0.0 0 1 139.47 166.24   Q 141.46 162.74 136.53 161.39   C 136.50 157.87 130.40 156.29 129.06 155.25   A 3.80 3.68 7.0 0 1 127.97 153.90   L 127.37 152.62   A 0.85 0.85 0.0 0 0 126.36 152.17   Q 125.36 152.48 124.79 153.75   C 121.53 149.35 121.00 143.47 120.85 138.15   A 0.25 0.25 0.0 0 0 120.36 138.09   L 120.14 139.00   Q 119.18 131.06 123.63 124.58   A 0.25 0.24 -53.2 0 0 123.59 124.25   L 123.58 124.25   A 0.25 0.24 -46.8 0 0 123.26 124.27   L 120.44 126.89   L 113.90 133.18   A 0.26 0.26 0.0 0 0 114.10 133.62   Q 114.39 133.59 114.87 133.18   A 0.38 0.38 0.0 0 1 115.42 133.70   Q 112.29 137.76 109.26 140.74   Q 108.00 141.99 107.13 144.06   A 0.63 0.63 0.0 0 0 107.35 144.82   Q 107.59 144.99 107.72 145.35   Q 107.88 145.79 107.22 146.26   Q 103.78 148.69 99.80 150.34   C 100.93 147.35 103.41 146.10 105.55 143.80   A 0.37 0.37 0.0 0 0 105.12 143.22   L 103.10 144.23   A 0.45 0.45 0.0 0 1 102.56 143.53   L 108.09 137.08   A 0.48 0.48 0.0 0 0 107.56 136.31   Q 105.35 137.12 103.67 138.58   A 0.33 0.33 0.0 0 1 103.12 138.36   Q 103.07 137.56 103.80 136.76   Q 106.66 133.65 109.84 131.59   Q 110.33 131.27 110.68 130.57   A 0.47 0.47 0.0 0 0 110.09 129.92   L 106.75 131.17   A 0.45 0.45 0.0 0 1 106.15 130.64   C 107.31 125.70 114.45 125.72 115.28 121.94   Q 115.54 120.77 114.55 120.83   C 116.49 117.24 118.70 117.03 121.58 115.74   A 0.50 0.50 0.0 0 0 121.49 114.79   Q 119.31 114.27 117.27 115.58   A 0.31 0.31 0.0 0 1 116.83 115.47   L 116.57 115.03   A 0.04 0.04 0.0 0 1 116.58 114.98   L 124.61 110.23   A 0.45 0.45 0.0 0 0 124.47 109.40   L 123.41 109.20   A 0.55 0.55 0.0 0 1 123.45 108.12   L 130.77 107.29   A 0.46 0.46 0.0 0 0 131.04 106.51   L 127.89 103.42   Q 124.64 99.11 122.66 93.50   A 0.02 0.02 0.0 0 1 122.70 93.48   L 129.61 100.38   A 0.31 0.31 0.0 0 0 130.12 100.05   L 129.55 98.54   A 0.20 0.20 0.0 0 1 129.85 98.31   C 131.14 99.20 132.39 100.46 132.40 102.18   Q 132.40 102.86 132.66 103.95   A 1.08 1.08 0.0 0 0 134.77 103.88   Q 135.56 99.22 140.36 97.58   Q 147.41 95.17 155.00 94.03   C 158.73 93.46 162.36 93.53 165.20 95.87   A 0.44 0.43 -37.5 0 1 165.10 96.60   C 161.31 98.31 156.50 99.49 151.60 99.87   C 147.66 100.18 142.79 100.98 139.82 103.59   A 0.34 0.34 0.0 0 0 140.08 104.19   L 145.05 103.62   A 0.20 0.20 0.0 0 1 145.20 103.97   C 143.01 105.83 138.99 106.65 136.88 109.10   A 0.92 0.92 0.0 0 0 137.48 110.61   Q 139.14 110.78 140.63 109.83   Q 147.12 105.73 153.77 104.55   Q 154.84 104.36 158.05 104.87   A 2.48 2.38 39.6 0 0 159.16 104.79   Q 160.40 104.38 161.89 103.54   A 2.74 2.67 -36.1 0 1 165.22 104.01   Q 166.28 105.15 166.85 107.62   A 0.73 0.73 0.0 0 1 166.51 108.41   Q 164.51 109.62 163.38 111.32   A 0.69 0.69 0.0 0 1 162.19 111.25   L 161.34 109.56   A 0.87 0.87 0.0 0 0 160.44 109.09   Q 150.02 110.66 141.26 116.79   Z   M 146.92 179.57   Q 143.84 179.66 142.06 181.00   Q 140.56 182.12 140.89 183.00   A 2.02 1.99 -45.7 0 0 144.65 182.92   Q 145.05 181.84 147.19 180.42   A 0.46 0.46 0.0 0 0 146.92 179.57   Z   M 190.08 179.59   A 0.47 0.47 0.0 0 0 189.81 180.44   Q 191.97 181.86 192.38 182.94   A 2.03 2.00 45.3 0 0 196.16 182.99   Q 196.49 182.11 194.97 180.99   Q 193.17 179.66 190.08 179.59   Z"
     id="path98" />
  <path
     fill="#251f1d"
     d="   M 220.23 101.81   Q 218.22 100.64 214.95 100.87   A 0.32 0.32 0.0 0 1 214.73 100.30   Q 218.61 97.30 223.05 98.64   A 0.33 0.33 0.0 0 0 223.37 98.08   Q 222.07 96.91 219.58 96.69   A 0.30 0.29 -55.4 0 1 219.48 96.13   Q 226.15 92.87 229.16 99.16   C 232.00 105.09 221.18 107.66 223.71 113.53   A 2.05 2.03 43.8 0 1 223.75 115.06   L 223.39 116.02   A 0.65 0.65 0.0 0 1 222.18 116.02   L 221.42 113.99   A 0.75 0.75 0.0 0 0 221.00 113.57   L 216.97 112.06   A 0.36 0.36 0.0 0 1 216.97 111.38   L 218.45 110.83   A 0.33 0.33 0.0 0 0 218.55 110.28   Q 217.66 109.46 216.17 109.48   A 0.34 0.34 0.0 0 1 215.90 108.93   Q 216.64 108.01 217.18 107.78   A 0.44 0.43 36.8 0 0 217.06 106.95   Q 215.80 106.79 214.22 107.13   A 0.84 0.84 0.0 0 1 213.32 105.90   Q 215.57 101.94 220.08 102.28   A 0.25 0.25 0.0 0 0 220.23 101.81   Z"
     id="path99" />
  <path
     fill="#251f1d"
     d="   M 109.88 100.87   Q 111.51 97.60 115.97 97.45   A 0.27 0.27 0.0 0 1 116.08 97.97   Q 113.84 98.89 112.79 100.59   A 0.22 0.21 -3.6 0 0 113.11 100.87   Q 115.46 98.95 119.56 99.93   A 0.46 0.46 0.0 0 1 119.49 100.84   Q 117.33 101.00 115.79 101.93   A 0.32 0.32 0.0 0 0 115.92 102.52   L 119.13 102.80   A 1.94 1.91 65.2 0 1 120.06 103.15   Q 121.62 104.29 122.20 106.49   A 0.44 0.44 0.0 0 1 121.77 107.04   L 118.44 107.04   A 0.38 0.38 0.0 0 0 118.23 107.73   L 119.60 108.64   A 0.51 0.51 0.0 0 1 119.34 109.57   Q 117.87 109.63 117.28 110.14   A 0.56 0.55 24.4 0 0 117.65 111.11   L 118.51 111.11   A 0.47 0.47 0.0 0 1 118.79 111.96   C 116.75 113.45 113.73 112.25 113.74 115.59   A 0.68 0.67 9.1 0 1 112.85 116.23   L 112.75 116.20   A 1.42 1.41 -84.4 0 1 111.79 115.03   Q 111.63 113.78 112.27 112.40   A 1.36 1.35 -41.7 0 0 112.33 111.42   C 111.17 107.77 108.42 106.63 107.07 104.89   C 103.10 99.78 107.46 96.89 112.06 96.29   A 0.26 0.26 0.0 0 1 112.25 96.76   Q 109.54 98.81 109.40 100.74   A 0.25 0.25 0.0 0 0 109.88 100.87   Z"
     id="path100" />
  <path
     fill="#fefefe"
     d="   M 192.86 116.33   Q 193.85 115.12 195.97 115.39   A 0.34 0.34 0.0 0 1 196.22 115.90   Q 194.88 118.25 195.00 118.23   Q 196.86 117.89 198.40 117.67   A 0.33 0.33 0.0 0 1 198.70 118.21   L 197.72 119.35   A 0.48 0.47 -64.3 0 0 197.99 120.13   L 203.02 121.08   A 0.28 0.28 0.0 0 1 203.11 121.60   L 201.39 122.59   A 0.53 0.53 0.0 0 0 201.39 123.50   Q 205.94 126.16 205.61 130.96   C 204.01 133.85 203.60 138.52 198.99 137.75   C 193.63 136.85 188.30 136.67 184.96 141.02   C 183.22 143.29 182.81 149.19 182.16 152.62   Q 179.83 152.24 179.81 149.42   Q 179.79 146.48 180.02 143.49   A 4.39 4.27 57.2 0 1 180.23 142.44   Q 181.02 140.02 181.16 137.49   L 182.99 134.02   A 2.69 2.68 46.3 0 0 183.04 131.63   L 178.77 122.53   L 179.50 120.50   A 0.18 0.17 -74.3 0 1 179.71 120.38   Q 179.93 120.43 179.93 120.54   A 0.30 0.29 50.7 0 0 180.52 120.61   L 181.47 115.51   Q 183.11 114.67 184.94 114.48   Q 186.27 114.35 188.41 115.21   Q 190.64 116.11 192.86 116.33   Z   M 189.19 134.13   A 0.42 0.42 0.0 0 0 189.90 134.56   L 191.57 132.61   A 1.69 1.69 0.0 0 1 193.95 132.43   L 196.25 134.40   A 1.98 1.96 55.0 0 0 198.23 134.76   L 200.94 133.74   A 0.60 0.60 0.0 0 0 200.96 132.62   C 198.20 131.50 197.72 128.65 194.62 127.96   A 1.30 1.29 82.3 0 1 193.75 127.29   Q 192.14 124.19 188.27 119.82   Q 187.91 119.41 187.55 119.44   Q 187.14 119.47 186.74 119.69   Q 186.11 120.05 185.63 119.83   Q 185.33 119.70 185.21 118.71   A 0.36 0.36 0.0 0 0 184.52 118.62   Q 183.58 120.81 184.02 121.82   Q 184.30 122.48 186.82 122.89   Q 190.76 123.54 191.24 127.65   C 191.48 129.71 189.89 132.32 189.19 134.13   Z"
     id="path101" />
  <path
     fill="#fefefe"
     d="   M 155.54 115.37   Q 155.59 117.01 157.30 116.91   A 0.64 0.64 0.0 0 1 157.80 117.99   Q 156.71 119.14 156.12 120.68   Q 156.01 120.98 156.19 121.27   Q 156.32 121.47 156.52 121.51   Q 156.77 121.55 156.88 121.37   Q 157.35 120.59 157.75 120.65   A 0.68 0.66 8.3 0 1 158.32 121.40   Q 158.21 122.15 157.95 122.68   Q 154.45 128.16 154.27 134.36   A 2.46 2.44 -60.2 0 0 154.63 135.71   L 156.86 139.29   Q 156.93 143.32 156.97 148.00   Q 157.00 151.20 154.61 152.80   Q 154.16 150.77 153.42 145.80   Q 152.11 137.05 142.99 137.38   Q 141.95 137.41 137.75 137.47   C 132.80 137.54 132.51 133.46 129.87 130.32   Q 131.36 126.47 134.17 123.57   A 0.75 0.74 -39.6 0 0 134.26 122.64   Q 133.81 121.96 133.62 121.15   A 0.76 0.75 84.4 0 1 134.38 120.22   Q 136.59 120.30 137.19 119.49   A 0.40 0.40 0.0 0 0 137.03 118.89   Q 136.64 118.73 136.69 118.33   A 0.33 0.32 -5.4 0 1 136.93 118.05   L 141.26 116.79   Q 145.17 117.37 149.49 115.20   Q 151.46 114.22 155.54 115.37   Z   M 147.48 134.12   C 146.78 132.32 145.20 129.73 145.43 127.68   Q 145.91 123.59 149.83 122.94   Q 152.34 122.53 152.61 121.87   Q 153.05 120.87 152.11 118.69   A 0.36 0.36 0.0 0 0 151.43 118.78   Q 151.31 119.76 151.01 119.89   Q 150.53 120.11 149.91 119.75   Q 149.51 119.54 149.10 119.51   Q 148.74 119.48 148.38 119.88   Q 144.54 124.23 142.94 127.32   A 1.29 1.28 -82.4 0 1 142.07 127.99   C 138.99 128.67 138.51 131.51 135.77 132.63   A 0.60 0.60 0.0 0 0 135.79 133.74   L 138.48 134.75   A 1.97 1.95 -55.0 0 0 140.45 134.39   L 142.74 132.43   A 1.68 1.68 0.0 0 1 145.11 132.61   L 146.77 134.55   A 0.42 0.42 0.0 0 0 147.48 134.12   Z"
     id="path102" />
  <path
     fill="#251f1d"
     d="   M 189.19 134.13   C 189.89 132.32 191.48 129.71 191.24 127.65   Q 190.76 123.54 186.82 122.89   Q 184.30 122.48 184.02 121.82   Q 183.58 120.81 184.52 118.62   A 0.36 0.36 0.0 0 1 185.21 118.71   Q 185.33 119.70 185.63 119.83   Q 186.11 120.05 186.74 119.69   Q 187.14 119.47 187.55 119.44   Q 187.91 119.41 188.27 119.82   Q 192.14 124.19 193.75 127.29   A 1.30 1.29 82.3 0 0 194.62 127.96   C 197.72 128.65 198.20 131.50 200.96 132.62   A 0.60 0.60 0.0 0 1 200.94 133.74   L 198.23 134.76   A 1.98 1.96 55.0 0 1 196.25 134.40   L 193.95 132.43   A 1.69 1.69 0.0 0 0 191.57 132.61   L 189.90 134.56   A 0.42 0.42 0.0 0 1 189.19 134.13   Z"
     id="path103" />
  <path
     fill="#251f1d"
     d="   M 147.48 134.12   A 0.42 0.42 0.0 0 1 146.77 134.55   L 145.11 132.61   A 1.68 1.68 0.0 0 0 142.74 132.43   L 140.45 134.39   A 1.97 1.95 -55.0 0 1 138.48 134.75   L 135.79 133.74   A 0.60 0.60 0.0 0 1 135.77 132.63   C 138.51 131.51 138.99 128.67 142.07 127.99   A 1.29 1.28 -82.4 0 0 142.94 127.32   Q 144.54 124.23 148.38 119.88   Q 148.74 119.48 149.10 119.51   Q 149.51 119.54 149.91 119.75   Q 150.53 120.11 151.01 119.89   Q 151.31 119.76 151.43 118.78   A 0.36 0.36 0.0 0 1 152.11 118.69   Q 153.05 120.87 152.61 121.87   Q 152.34 122.53 149.83 122.94   Q 145.91 123.59 145.43 127.68   C 145.20 129.73 146.78 132.32 147.48 134.12   Z"
     id="path104" />
  <path
     fill="#251f1d"
     d="   M 178.77 122.53   L 183.04 131.63   A 2.69 2.68 46.3 0 1 182.99 134.02   L 181.16 137.49   L 179.89 139.68   A 0.47 0.46 -48.6 0 1 179.12 139.73   Q 178.33 138.69 178.03 137.51   A 2.07 1.97 45.9 0 1 178.02 136.52   Q 178.72 133.75 178.90 132.51   C 179.26 130.06 177.63 127.66 177.43 125.13   Q 177.22 122.60 178.77 122.53   Z"
     id="path105" />
  <path
     fill="#251f1d"
     d="   M 157.95 122.68   Q 159.04 123.43 158.57 125.03   Q 157.14 129.95 157.12 130.52   A 6.91 6.60 43.7 0 0 157.17 131.62   Q 157.30 132.63 158.22 134.38   Q 158.99 135.84 158.78 137.61   Q 158.42 140.52 156.86 139.29   L 154.63 135.71   A 2.46 2.44 -60.2 0 1 154.27 134.36   Q 154.45 128.16 157.95 122.68   Z"
     id="path106" />
  <path
     fill="#251f1d"
     d="   M 120.14 139.00   L 120.38 149.00   A 7.50 7.17 51.8 0 1 120.21 150.75   C 118.71 157.49 115.91 167.55 120.21 172.25   A 2.07 1.81 44.6 0 0 123.11 172.42   Q 123.55 171.92 123.33 171.07   A 1.60 1.45 -18.0 0 1 124.35 169.30   C 126.36 168.53 128.57 168.42 130.49 166.61   Q 131.95 165.25 134.02 164.60   A 0.55 0.54 11.5 0 1 134.60 165.47   L 131.62 168.94   A 3.19 3.17 -35.0 0 0 131.05 172.13   L 131.67 173.76   A 1.14 1.14 0.0 0 0 133.77 173.86   C 134.60 172.16 135.90 168.26 138.17 168.56   A 0.48 0.47 -75.8 0 1 138.55 169.20   L 134.90 178.89   A 0.53 0.53 0.0 0 1 133.95 178.98   Q 133.89 178.90 133.86 178.87   A 1.19 1.17 -30.1 0 0 132.62 178.55   Q 131.97 178.77 131.66 179.58   A 0.36 0.35 50.7 0 1 130.98 179.51   Q 130.61 177.38 129.86 176.33   A 1.17 1.16 -51.1 0 0 127.85 176.55   C 126.48 179.70 130.20 183.72 132.07 186.20   A 0.29 0.29 0.0 0 1 132.01 186.61   L 132.00 186.61   A 0.20 0.19 52.5 0 1 131.73 186.57   Q 128.17 182.01 123.62 178.88   A 0.58 0.58 0.0 0 0 122.75 179.56   L 123.32 181.08   A 2.01 2.01 0.0 0 0 123.88 181.88   L 130.90 187.74   A 0.19 0.18 -50.2 0 1 130.92 188.01   A 0.20 0.19 -58.1 0 1 130.67 188.07   Q 123.46 183.94 117.95 179.81   C 114.65 177.35 112.66 171.64 112.39 168.07   A 0.41 0.41 0.0 0 0 111.80 167.74   L 111.32 167.98   A 0.41 0.40 80.0 0 1 110.74 167.57   Q 111.28 162.69 113.87 156.96   A 1.74 1.73 12.1 0 0 112.28 154.51   L 110.80 154.51   A 0.65 0.65 0.0 0 1 110.31 153.44   L 114.65 148.38   A 0.60 0.59 7.0 0 0 113.93 147.46   L 111.04 148.90   A 0.13 0.13 0.0 0 1 110.86 148.74   L 113.30 141.40   A 1.94 1.93 78.0 0 1 113.85 140.55   Q 116.55 138.13 117.80 136.29   A 1.07 1.04 55.3 0 0 117.94 135.46   Q 117.85 135.07 116.99 135.05   A 0.44 0.44 0.0 0 1 116.61 134.41   L 120.44 126.89   L 123.26 124.27   A 0.25 0.24 -46.8 0 1 123.58 124.25   L 123.59 124.25   A 0.25 0.24 -53.2 0 1 123.63 124.58   Q 119.18 131.06 120.14 139.00   Z"
     id="path107" />
  <path
     fill="#fefefe"
     d="   M 120.44 126.89   L 116.61 134.41   A 0.44 0.44 0.0 0 0 116.99 135.05   Q 117.85 135.07 117.94 135.46   A 1.07 1.04 55.3 0 1 117.80 136.29   Q 116.55 138.13 113.85 140.55   A 1.94 1.93 78.0 0 0 113.30 141.40   L 110.86 148.74   A 0.13 0.13 0.0 0 0 111.04 148.90   L 113.93 147.46   A 0.60 0.59 7.0 0 1 114.65 148.38   L 110.31 153.44   A 0.65 0.65 0.0 0 0 110.80 154.51   L 112.28 154.51   A 1.74 1.73 12.1 0 1 113.87 156.96   Q 111.28 162.69 110.74 167.57   A 0.41 0.40 80.0 0 0 111.32 167.98   L 111.80 167.74   A 0.41 0.41 0.0 0 1 112.39 168.07   C 112.66 171.64 114.65 177.35 117.95 179.81   Q 123.46 183.94 130.67 188.07   A 0.20 0.19 -58.1 0 0 130.92 188.01   A 0.19 0.18 -50.2 0 0 130.90 187.74   L 123.88 181.88   A 2.01 2.01 0.0 0 1 123.32 181.08   L 122.75 179.56   A 0.58 0.58 0.0 0 1 123.62 178.88   Q 128.17 182.01 131.73 186.57   A 0.20 0.19 52.5 0 0 132.00 186.61   L 132.01 186.61   A 0.29 0.29 0.0 0 0 132.07 186.20   C 130.20 183.72 126.48 179.70 127.85 176.55   A 1.17 1.16 -51.1 0 1 129.86 176.33   Q 130.61 177.38 130.98 179.51   A 0.36 0.35 50.7 0 0 131.66 179.58   Q 131.97 178.77 132.62 178.55   A 1.19 1.17 -30.1 0 1 133.86 178.87   Q 133.89 178.90 133.95 178.98   A 0.53 0.53 0.0 0 0 134.90 178.89   L 138.55 169.20   A 0.48 0.47 -75.8 0 0 138.17 168.56   C 135.90 168.26 134.60 172.16 133.77 173.86   A 1.14 1.14 0.0 0 1 131.67 173.76   L 131.05 172.13   A 3.19 3.17 -35.0 0 1 131.62 168.94   L 134.60 165.47   A 0.55 0.54 11.5 0 0 134.02 164.60   Q 131.95 165.25 130.49 166.61   C 128.57 168.42 126.36 168.53 124.35 169.30   A 1.60 1.45 -18.0 0 0 123.33 171.07   Q 123.55 171.92 123.11 172.42   A 2.07 1.81 44.6 0 1 120.21 172.25   C 115.91 167.55 118.71 157.49 120.21 150.75   A 7.50 7.17 51.8 0 0 120.38 149.00   L 120.14 139.00   L 120.36 138.09   A 0.25 0.25 0.0 0 1 120.85 138.15   C 121.00 143.47 121.53 149.35 124.79 153.75   C 124.96 159.37 131.95 160.41 136.53 161.39   Q 141.46 162.74 139.47 166.24   A 0.32 0.32 0.0 0 0 139.79 166.72   L 142.12 166.45   A 0.52 0.52 0.0 0 1 142.63 167.23   L 141.26 169.60   A 0.57 0.57 0.0 0 0 141.85 170.45   Q 143.44 170.20 144.36 170.47   A 0.29 0.29 0.0 0 1 144.43 171.00   Q 143.27 171.73 140.52 176.00   Q 137.55 180.62 139.12 185.15   Q 140.60 188.46 142.71 188.83   Q 146.69 189.54 150.61 190.61   A 0.35 0.34 87.6 0 0 151.02 190.16   L 150.68 189.21   Q 150.67 187.38 150.58 184.77   Q 150.50 182.42 152.07 181.49   C 151.91 186.16 154.28 187.18 158.08 187.98   A 2.32 2.25 -19.3 0 1 159.03 188.42   Q 159.76 189.00 161.95 192.36   C 163.02 194.00 165.84 195.49 166.62 197.50   C 170.23 206.86 151.41 211.44 145.78 207.76   Q 143.25 206.11 142.16 203.41   A 0.69 0.69 0.0 0 1 142.98 202.48   C 145.07 203.06 150.17 203.87 151.79 201.97   A 0.34 0.33 18.2 0 0 151.51 201.42   C 147.14 201.69 140.00 202.07 136.83 198.67   Q 136.20 198.00 134.38 195.13   A 3.59 3.58 -10.8 0 0 132.03 193.54   C 127.82 192.75 123.44 191.63 120.65 188.61   Q 117.88 185.60 116.73 185.24   Q 112.58 183.94 109.38 186.22   A 0.50 0.50 0.0 0 0 109.81 187.10   Q 111.63 186.55 113.17 186.67   A 0.76 0.76 0.0 0 1 113.82 187.69   L 111.55 193.73   A 0.27 0.27 0.0 0 0 111.98 194.02   Q 113.03 193.05 114.38 192.49   A 0.36 0.36 0.0 0 1 114.86 192.93   Q 114.19 194.99 114.33 196.58   A 0.53 0.53 0.0 0 0 115.25 196.89   Q 116.10 195.98 118.01 195.28   A 0.30 0.29 6.6 0 1 118.36 195.72   L 116.91 197.89   A 0.64 0.63 -2.0 0 0 117.83 198.74   Q 118.30 198.38 118.94 198.60   Q 119.39 198.76 119.49 199.83   Q 119.76 202.63 119.89 203.31   Q 120.05 204.13 120.22 204.23   A 1.30 1.22 -67.4 0 0 122.05 203.40   Q 122.71 201.00 123.64 199.58   A 0.25 0.24 -25.2 0 1 124.09 199.74   Q 123.76 202.19 125.29 205.35   A 0.31 0.31 0.0 0 0 125.85 205.36   Q 126.09 204.90 125.96 203.95   A 0.81 0.80 23.9 0 1 127.42 203.39   Q 128.78 205.37 128.64 209.11   A 0.30 0.30 0.0 0 0 129.19 209.30   C 132.01 205.27 140.56 208.30 143.68 210.31   C 146.74 212.29 147.04 214.70 144.22 216.97   A 1.73 1.71 20.9 0 1 143.40 217.33   C 140.10 217.81 135.19 218.64 132.66 216.70   A 0.52 0.51 29.1 0 0 131.86 216.92   L 130.65 220.14   A 0.58 0.58 0.0 0 1 129.66 220.30   Q 127.79 218.02 124.42 213.35   Q 123.64 212.28 122.36 211.35   A 0.54 0.54 0.0 0 0 121.52 211.69   L 121.12 213.78   A 0.34 0.34 0.0 0 1 120.56 213.98   C 117.68 211.52 117.56 208.14 116.20 205.31   A 0.55 0.55 0.0 0 0 115.16 205.45   L 114.86 207.01   A 0.25 0.25 0.0 0 1 114.42 207.12   Q 110.19 201.55 109.31 194.81   A 0.55 0.55 0.0 0 0 108.38 194.49   L 105.13 197.74   A 0.68 0.68 0.0 0 1 104.06 197.61   Q 103.43 196.58 103.34 195.63   C 102.96 191.59 103.12 186.95 101.57 183.02   A 0.83 0.83 0.0 0 0 100.02 183.03   L 99.77 183.70   A 0.21 0.21 0.0 0 1 99.36 183.64   Q 98.87 177.82 101.74 174.44   C 102.51 173.54 103.16 171.94 103.70 170.77   A 0.38 0.38 0.0 0 0 103.09 170.34   L 100.55 172.89   A 0.50 0.50 0.0 0 1 99.70 172.44   L 101.54 162.75   A 0.27 0.26 85.1 0 0 101.19 162.45   L 97.67 163.76   A 0.40 0.39 -5.4 0 1 97.14 163.33   C 97.91 159.03 100.96 156.96 105.02 152.85   A 1.05 1.05 0.0 0 0 104.53 151.10   Q 103.12 150.73 99.39 151.76   A 0.32 0.32 0.0 0 1 99.00 151.34   Q 99.25 150.73 99.80 150.34   Q 103.78 148.69 107.22 146.26   Q 107.88 145.79 107.72 145.35   Q 107.59 144.99 107.35 144.82   A 0.63 0.63 0.0 0 1 107.13 144.06   Q 108.00 141.99 109.26 140.74   Q 112.29 137.76 115.42 133.70   A 0.38 0.38 0.0 0 0 114.87 133.18   Q 114.39 133.59 114.10 133.62   A 0.26 0.26 0.0 0 1 113.90 133.18   L 120.44 126.89   Z   M 137.39 191.90   C 138.96 195.78 141.67 197.17 145.48 198.33   Q 147.52 198.95 151.89 198.25   Q 155.10 197.73 158.32 197.75   A 0.46 0.46 0.0 0 0 158.44 196.85   Q 155.92 196.15 152.82 196.25   C 146.97 196.44 142.11 195.81 137.81 191.63   A 0.26 0.25 11.6 0 0 137.39 191.90   Z   M 159.0000 199.8966   A 1.11 0.51 -36.7 0 0 157.8052 200.1511   A 1.11 0.51 -36.7 0 0 157.2200 201.2234   A 1.11 0.51 -36.7 0 0 158.4148 200.9689   A 1.11 0.51 -36.7 0 0 159.0000 199.8966   Z   M 153.89 202.56   Q 154.44 202.42 155.30 201.63   A 0.31 0.30 -63.9 0 0 155.12 201.10   Q 154.02 201.04 153.59 201.27   A 0.72 0.61 -62.5 0 0 153.89 202.56   Z"
     id="path108" />
  <path
     fill="#251f1d"
     d="   M 216.79 130.04   C 218.76 133.59 222.84 137.00 221.52 142.24   A 2.43 2.42 42.2 0 0 221.59 143.62   Q 222.17 145.29 221.50 146.38   A 1.80 1.78 55.0 0 0 221.27 147.72   Q 222.02 150.99 224.20 152.96   A 0.29 0.28 -13.9 0 1 223.91 153.44   L 222.08 152.75   A 0.35 0.35 0.0 0 0 221.63 153.21   L 224.52 160.15   A 0.19 0.19 0.0 0 1 224.49 160.35   L 224.48 160.36   A 0.23 0.22 61.1 0 1 224.18 160.27   Q 223.12 158.49 221.37 157.10   A 0.27 0.27 0.0 0 0 220.96 157.42   Q 225.24 167.73 223.46 178.41   A 0.56 0.56 0.0 0 1 222.38 178.52   L 221.33 175.71   A 0.40 0.40 0.0 0 0 220.64 175.61   Q 214.76 183.07 205.45 187.71   A 0.22 0.22 0.0 0 1 205.14 187.54   L 205.11 187.33   A 0.03 0.02 -31.7 0 1 205.12 187.31   Q 208.40 184.93 211.25 182.26   Q 212.69 180.92 213.00 179.75   A 0.71 0.71 0.0 0 0 211.90 178.99   Q 207.23 182.31 204.00 186.46   A 0.21 0.21 0.0 0 1 203.71 186.50   L 203.70 186.50   A 0.25 0.23 35.9 0 1 203.64 186.18   C 205.85 182.97 209.38 179.94 207.69 176.22   A 0.93 0.92 -31.5 0 0 206.27 175.88   Q 204.91 176.97 204.78 179.62   A 0.29 0.29 0.0 0 1 204.24 179.75   Q 203.08 177.70 201.77 179.01   A 0.63 0.62 -32.8 0 1 200.74 178.79   L 197.17 169.26   A 0.63 0.63 0.0 0 1 197.88 168.42   C 199.81 168.82 201.33 172.41 201.99 173.94   A 1.06 1.05 43.7 0 0 203.95 173.90   L 204.62 172.13   A 3.09 3.06 36.3 0 0 204.15 169.14   L 201.23 165.43   A 0.50 0.50 0.0 0 1 201.76 164.64   Q 203.93 165.26 205.83 167.17   Q 206.54 167.88 210.71 169.03   Q 212.91 169.64 212.33 171.13   A 1.60 1.55 -10.8 0 0 214.89 172.81   C 219.02 169.19 217.65 164.15 216.70 159.21   A 5.21 5.19 -47.3 0 1 216.64 157.64   C 217.01 154.20 217.88 150.99 217.73 147.41   Q 217.43 140.43 216.00 133.55   L 213.41 128.49   A 0.44 0.43 -84.9 0 1 214.06 127.94   L 216.79 130.04   Z"
     id="path109" />
  <path
     fill="#fefefe"
     d="   M 231.42 151.64   Q 232.62 155.62 235.57 161.70   Q 236.29 163.19 236.20 165.82   A 0.25 0.25 0.0 0 1 235.81 166.02   L 232.67 163.93   A 0.63 0.62 -86.9 0 0 231.77 164.74   C 232.30 165.75 233.40 167.12 233.92 168.30   Q 236.63 174.51 236.45 180.35   A 0.41 0.41 0.0 0 1 235.71 180.58   Q 234.92 179.46 234.04 178.86   A 0.41 0.41 0.0 0 0 233.40 179.27   Q 233.80 181.44 235.04 187.01   Q 235.22 187.85 234.68 189.99   A 0.39 0.38 39.3 0 1 233.96 190.06   L 232.71 187.57   A 0.49 0.49 0.0 0 0 231.78 187.81   Q 232.02 193.50 230.29 198.32   A 0.60 0.59 41.7 0 1 229.20 198.38   L 228.38 196.75   A 0.70 0.70 0.0 0 0 227.07 196.93   L 225.50 205.21   A 0.72 0.71 37.2 0 1 224.16 205.39   L 221.72 200.49   A 0.25 0.25 0.0 0 0 221.24 200.64   Q 221.91 205.53 219.67 209.67   A 0.60 0.60 0.0 0 1 218.72 209.81   L 216.90 207.99   A 0.32 0.32 0.0 0 0 216.35 208.21   Q 216.24 210.74 215.20 212.79   A 0.52 0.51 -44.7 0 1 214.28 212.79   L 212.87 209.95   A 0.45 0.45 0.0 0 0 212.05 209.98   Q 209.45 216.29 204.63 220.69   A 0.84 0.84 0.0 0 1 203.36 220.54   C 200.62 216.41 196.64 217.13 192.62 217.27   A 0.30 0.30 0.0 0 1 192.36 216.80   L 197.21 209.53   A 1.27 1.27 0.0 0 1 199.22 209.40   Q 199.60 209.83 200.03 211.56   A 0.43 0.43 0.0 0 0 200.80 211.70   L 205.58 204.55   A 0.40 0.39 -38.4 0 1 206.28 204.63   L 207.50 207.87   A 0.41 0.41 0.0 0 0 208.26 207.89   Q 210.62 202.35 215.18 198.16   A 1.08 1.00 87.6 0 0 215.40 197.90   L 219.23 191.49   A 0.45 0.45 0.0 0 1 219.96 191.44   Q 220.16 191.68 220.17 191.69   A 0.39 0.38 33.7 0 0 220.79 191.57   Q 222.75 187.05 221.50 183.04   A 0.57 0.56 -33.2 0 0 220.53 182.84   Q 219.39 184.17 216.70 187.40   C 215.11 189.32 210.85 190.24 207.12 191.35   A 7.70 7.66 19.2 0 0 204.93 192.40   C 202.58 194.03 200.01 197.49 196.94 199.03   C 193.24 200.89 188.92 201.31 185.34 201.51   A 0.36 0.36 0.0 0 0 185.18 202.18   C 188.09 203.79 190.69 203.04 194.12 202.63   A 0.47 0.47 0.0 0 1 194.64 203.15   Q 194.46 204.84 193.30 205.81   C 186.12 211.78 176.88 209.11 170.39 203.98   A 2.45 2.43 -83.1 0 1 169.65 203.03   C 168.16 199.71 168.49 197.22 171.73 194.72   C 174.87 192.29 175.24 188.56 179.52 187.77   Q 183.58 187.02 184.14 182.36   Q 186.26 185.50 184.71 189.95   A 0.50 0.50 0.0 0 0 184.92 190.54   Q 185.30 190.77 185.79 190.67   Q 190.16 189.71 194.14 188.89   Q 197.35 188.23 198.08 184.62   Q 198.60 181.70 197.40 180.10   C 195.06 176.97 191.71 174.41 190.17 170.77   A 0.51 0.51 0.0 0 1 190.97 170.19   L 192.78 171.74   A 0.44 0.44 0.0 0 0 193.50 171.36   L 193.19 168.62   A 0.68 0.68 0.0 0 1 193.58 167.92   Q 193.69 167.86 193.84 167.78   A 1.32 1.32 0.0 0 0 194.44 167.15   Q 196.21 163.14 199.94 161.12   Q 205.78 160.58 209.27 158.52   Q 212.13 156.84 211.80 153.26   Q 216.24 148.20 216.01 142.75   Q 215.82 138.40 216.00 133.55   Q 217.43 140.43 217.73 147.41   C 217.88 150.99 217.01 154.20 216.64 157.64   A 5.21 5.19 -47.3 0 0 216.70 159.21   C 217.65 164.15 219.02 169.19 214.89 172.81   A 1.60 1.55 -10.8 0 1 212.33 171.13   Q 212.91 169.64 210.71 169.03   Q 206.54 167.88 205.83 167.17   Q 203.93 165.26 201.76 164.64   A 0.50 0.50 0.0 0 0 201.23 165.43   L 204.15 169.14   A 3.09 3.06 36.3 0 1 204.62 172.13   L 203.95 173.90   A 1.06 1.05 43.7 0 1 201.99 173.94   C 201.33 172.41 199.81 168.82 197.88 168.42   A 0.63 0.63 0.0 0 0 197.17 169.26   L 200.74 178.79   A 0.63 0.62 -32.8 0 0 201.77 179.01   Q 203.08 177.70 204.24 179.75   A 0.29 0.29 0.0 0 0 204.78 179.62   Q 204.91 176.97 206.27 175.88   A 0.93 0.92 -31.5 0 1 207.69 176.22   C 209.38 179.94 205.85 182.97 203.64 186.18   A 0.25 0.23 35.9 0 0 203.70 186.50   L 203.71 186.50   A 0.21 0.21 0.0 0 0 204.00 186.46   Q 207.23 182.31 211.90 178.99   A 0.71 0.71 0.0 0 1 213.00 179.75   Q 212.69 180.92 211.25 182.26   Q 208.40 184.93 205.12 187.31   A 0.03 0.02 -31.7 0 0 205.11 187.33   L 205.14 187.54   A 0.22 0.22 0.0 0 0 205.45 187.71   Q 214.76 183.07 220.64 175.61   A 0.40 0.40 0.0 0 1 221.33 175.71   L 222.38 178.52   A 0.56 0.56 0.0 0 0 223.46 178.41   Q 225.24 167.73 220.96 157.42   A 0.27 0.27 0.0 0 1 221.37 157.10   Q 223.12 158.49 224.18 160.27   A 0.23 0.22 61.1 0 0 224.48 160.36   L 224.49 160.35   A 0.19 0.19 0.0 0 0 224.52 160.15   L 221.63 153.21   A 0.35 0.35 0.0 0 1 222.08 152.75   L 223.91 153.44   A 0.29 0.28 -13.9 0 0 224.20 152.96   Q 222.02 150.99 221.27 147.72   A 1.80 1.78 55.0 0 1 221.50 146.38   Q 222.17 145.29 221.59 143.62   A 2.43 2.42 42.2 0 1 221.52 142.24   C 222.84 137.00 218.76 133.59 216.79 130.04   Q 222.17 133.98 226.15 139.07   Q 227.27 140.51 227.41 141.99   A 0.38 0.38 0.0 0 1 226.78 142.31   Q 225.17 140.85 225.13 140.83   A 0.20 0.20 0.0 0 0 224.87 141.12   Q 225.93 142.80 226.89 143.70   A 0.89 0.79 59.5 0 1 226.60 145.17   Q 226.30 145.22 226.31 145.47   A 0.57 0.57 0.0 0 0 226.61 145.97   Q 230.55 148.13 231.42 151.64   Z   M 199.33 191.91   A 0.26 0.25 -11.7 0 0 198.92 191.64   C 194.64 195.81 189.80 196.44 183.98 196.26   Q 180.90 196.17 178.39 196.87   A 0.46 0.45 -52.9 0 0 178.51 197.76   Q 181.71 197.74 184.91 198.25   Q 189.26 198.94 191.29 198.32   C 195.08 197.16 197.78 195.77 199.33 191.91   Z   M 177.3929 199.9476   A 1.03 0.58 -140.7 0 0 177.8226 201.0488   A 1.03 0.58 -140.7 0 0 178.9871 201.2524   A 1.03 0.58 -140.7 0 0 178.5574 200.1512   A 1.03 0.58 -140.7 0 0 177.3929 199.9476   Z   M 181.13 201.84   Q 181.90 202.53 182.75 202.63   A 0.43 0.43 0.0 0 0 183.21 202.07   Q 182.79 200.81 181.33 201.11   A 0.42 0.42 0.0 0 0 181.13 201.84   Z"
     id="path110" />
  <path
     fill="#251f1d"
     d="   M 129.87 130.32   C 132.51 133.46 132.80 137.54 137.75 137.47   Q 141.95 137.41 142.99 137.38   Q 152.11 137.05 153.42 145.80   Q 154.16 150.77 154.61 152.80   Q 154.46 157.10 150.76 158.94   A 1.09 1.09 0.0 0 1 149.83 158.96   Q 148.79 158.50 148.75 157.06   C 149.94 154.53 151.75 150.76 148.01 150.00   C 142.68 148.91 138.70 148.61 136.51 143.59   Q 135.91 142.23 132.87 141.39   A 0.62 0.62 0.0 0 0 132.10 141.86   C 129.65 153.20 150.24 149.18 144.78 158.00   L 140.97 154.31   A 3.29 3.21 73.4 0 0 139.50 153.49   C 136.15 152.65 132.62 151.04 130.87 147.89   Q 130.32 146.90 129.05 145.36   A 0.59 0.59 0.0 0 0 128.15 145.36   L 127.77 145.80   A 0.39 0.38 -29.1 0 1 127.10 145.61   Q 126.46 141.75 129.22 139.97   A 0.62 0.62 0.0 0 0 129.40 139.11   Q 126.02 133.96 129.87 130.32   Z   M 149.94 143.15   C 147.11 148.05 139.62 146.10 141.37 139.97   A 0.48 0.48 0.0 0 0 140.69 139.42   Q 138.45 140.60 139.15 142.58   Q 141.17 148.27 147.76 147.47   Q 151.42 147.03 150.54 143.24   A 0.33 0.32 -36.2 0 0 149.94 143.15   Z   M 146.99 141.00   A 1.26 1.26 0.0 0 0 145.73 139.74   A 1.26 1.26 0.0 0 0 144.47 141.00   A 1.26 1.26 0.0 0 0 145.73 142.26   A 1.26 1.26 0.0 0 0 146.99 141.00   Z"
     id="path111" />
  <path
     fill="#251f1d"
     d="   M 192.65 157.36   Q 191.04 156.62 191.60 154.84   C 193.34 149.35 206.03 151.89 204.71 142.12   A 0.67 0.66 83.2 0 0 203.99 141.55   Q 202.46 141.71 201.21 142.39   A 1.57 1.55 -3.2 0 0 200.53 143.14   C 198.45 147.93 194.33 149.27 189.08 149.79   Q 187.91 149.90 187.01 150.98   C 185.68 152.58 187.01 155.33 188.00 156.74   Q 187.77 159.77 185.83 158.89   Q 181.92 157.12 182.16 152.62   C 182.81 149.19 183.22 143.29 184.96 141.02   C 188.30 136.67 193.63 136.85 198.99 137.75   C 203.60 138.52 204.01 133.85 205.61 130.96   Q 206.23 130.32 207.02 130.69   A 0.77 0.76 7.9 0 1 207.44 131.24   C 207.97 134.27 208.70 137.11 206.86 139.82   A 0.62 0.62 0.0 0 0 207.00 140.67   Q 209.84 142.78 210.58 146.23   A 0.32 0.32 0.0 0 1 210.07 146.55   Q 208.97 145.66 207.98 145.59   Q 207.38 145.55 206.48 146.97   C 203.83 151.16 200.78 152.38 196.34 154.06   Q 195.18 154.50 192.65 157.36   Z   M 192.90 140.95   A 1.32 1.32 0.0 0 0 191.58 139.63   A 1.32 1.32 0.0 0 0 190.26 140.95   A 1.32 1.32 0.0 0 0 191.58 142.27   A 1.32 1.32 0.0 0 0 192.90 140.95   Z   M 186.80 143.14   A 0.33 0.32 36.5 0 0 186.21 143.22   Q 185.31 146.99 188.95 147.45   Q 195.51 148.28 197.55 142.62   Q 198.26 140.65 196.03 139.47   A 0.47 0.47 0.0 0 0 195.35 140.01   C 197.07 146.13 189.60 148.03 186.80 143.14   Z"
     id="path112" />
  <path
     fill="#f48c2b"
     d="   M 150.54 143.24   Q 151.42 147.03 147.76 147.47   Q 141.17 148.27 139.15 142.58   Q 138.45 140.60 140.69 139.42   A 0.48 0.48 0.0 0 1 141.37 139.97   C 139.62 146.10 147.11 148.05 149.94 143.15   A 0.33 0.32 -36.2 0 1 150.54 143.24   Z"
     id="path113" />
  <circle
     fill="#fefefe"
     cx="191.58"
     cy="140.95"
     r="1.32"
     id="circle113" />
  <path
     fill="#f48c2b"
     d="   M 186.80 143.14   C 189.60 148.03 197.07 146.13 195.35 140.01   A 0.47 0.47 0.0 0 1 196.03 139.47   Q 198.26 140.65 197.55 142.62   Q 195.51 148.28 188.95 147.45   Q 185.31 146.99 186.21 143.22   A 0.33 0.32 36.5 0 1 186.80 143.14   Z"
     id="path114" />
  <circle
     fill="#fefefe"
     cx="145.73"
     cy="141.00"
     r="1.26"
     id="circle114" />
  <path
     fill="#fefefe"
     d="   M 148.75 157.06   Q 147.65 158.11 144.78 158.00   C 150.24 149.18 129.65 153.20 132.10 141.86   A 0.62 0.62 0.0 0 1 132.87 141.39   Q 135.91 142.23 136.51 143.59   C 138.70 148.61 142.68 148.91 148.01 150.00   C 151.75 150.76 149.94 154.53 148.75 157.06   Z"
     id="path115" />
  <path
     fill="#fefefe"
     d="   M 192.65 157.36   Q 192.72 158.10 191.32 157.93   C 190.17 157.80 189.30 156.95 188.00 156.74   C 187.01 155.33 185.68 152.58 187.01 150.98   Q 187.91 149.90 189.08 149.79   C 194.33 149.27 198.45 147.93 200.53 143.14   A 1.57 1.55 -3.2 0 1 201.21 142.39   Q 202.46 141.71 203.99 141.55   A 0.67 0.66 83.2 0 1 204.71 142.12   C 206.03 151.89 193.34 149.35 191.60 154.84   Q 191.04 156.62 192.65 157.36   Z"
     id="path116" />
  <path
     fill="#251f1d"
     d="   M 136.53 161.39   C 131.95 160.41 124.96 159.37 124.79 153.75   Q 125.36 152.48 126.36 152.17   A 0.85 0.85 0.0 0 1 127.37 152.62   L 127.97 153.90   A 3.80 3.68 7.0 0 0 129.06 155.25   C 130.40 156.29 136.50 157.87 136.53 161.39   Z"
     id="path117" />
  <path
     fill="#251f1d"
     d="   M 211.80 153.26   Q 212.13 156.84 209.27 158.52   Q 205.78 160.58 199.94 161.12   Q 201.68 157.58 206.59 155.78   C 208.03 155.25 208.65 154.61 209.01 153.25   Q 209.32 152.08 210.28 152.20   Q 211.06 152.30 211.80 153.26   Z"
     id="path118" />
  <path
     fill="#251f1d"
     d="   M 146.92 179.57   A 0.46 0.46 0.0 0 1 147.19 180.42   Q 145.05 181.84 144.65 182.92   A 2.02 1.99 -45.7 0 1 140.89 183.00   Q 140.56 182.12 142.06 181.00   Q 143.84 179.66 146.92 179.57   Z"
     id="path119" />
  <path
     fill="#251f1d"
     d="   M 190.08 179.59   Q 193.17 179.66 194.97 180.99   Q 196.49 182.11 196.16 182.99   A 2.03 2.00 45.3 0 1 192.38 182.94   Q 191.97 181.86 189.81 180.44   A 0.47 0.47 0.0 0 1 190.08 179.59   Z"
     id="path120" />
  <path
     fill="#f48c2b"
     d="   M 168.04 193.86   Q 167.94 193.86 167.77 193.93   Q 165.68 194.76 164.18 193.03   A 0.72 0.71 40.7 0 1 164.11 192.19   Q 165.48 189.89 164.41 188.08   Q 161.92 183.85 156.81 184.87   A 0.98 0.98 0.0 0 1 155.93 183.22   C 159.67 179.51 163.43 182.61 168.04 182.61   C 172.65 182.61 176.40 179.51 180.14 183.22   A 0.98 0.98 0.0 0 1 179.26 184.87   Q 174.15 183.85 171.66 188.08   Q 170.59 189.89 171.96 192.19   A 0.72 0.71 -40.7 0 1 171.89 193.03   Q 170.39 194.76 168.30 193.93   Q 168.13 193.86 168.04 193.86   Z"
     id="path121" />
  <path
     fill="#251f1d"
     d="   M 198.08 184.62   Q 197.35 188.23 194.14 188.89   Q 190.16 189.71 185.79 190.67   Q 188.29 187.49 191.56 187.02   Q 195.82 186.42 198.08 184.62   Z"
     id="path122" />
  <path
     fill="#251f1d"
     d="   M 150.68 189.21   L 151.02 190.16   A 0.35 0.34 87.6 0 1 150.61 190.61   Q 146.69 189.54 142.71 188.83   Q 140.60 188.46 139.12 185.15   L 150.68 189.21   Z"
     id="path123" />
  <path
     fill="#251f1d"
     d="   M 137.81 191.63   C 142.11 195.81 146.97 196.44 152.82 196.25   Q 155.92 196.15 158.44 196.85   A 0.46 0.46 0.0 0 1 158.32 197.75   Q 155.10 197.73 151.89 198.25   Q 147.52 198.95 145.48 198.33   C 141.67 197.17 138.96 195.78 137.39 191.90   A 0.26 0.25 11.6 0 1 137.81 191.63   Z"
     id="path124" />
  <path
     fill="#251f1d"
     d="   M 199.33 191.91   C 197.78 195.77 195.08 197.16 191.29 198.32   Q 189.26 198.94 184.91 198.25   Q 181.71 197.74 178.51 197.76   A 0.46 0.45 -52.9 0 1 178.39 196.87   Q 180.90 196.17 183.98 196.26   C 189.80 196.44 194.64 195.81 198.92 191.64   A 0.26 0.25 -11.7 0 1 199.33 191.91   Z"
     id="path125" />
  <ellipse
     fill="#251f1d"
     cx="0.00"
     cy="0.00"
     transform="translate(158.11,200.56) rotate(-36.7)"
     rx="1.11"
     ry="0.51"
     id="ellipse125" />
  <ellipse
     fill="#251f1d"
     cx="0.00"
     cy="0.00"
     transform="translate(178.19,200.60) rotate(-140.7)"
     rx="1.03"
     ry="0.58"
     id="ellipse126" />
  <path
     fill="#251f1d"
     d="   M 153.89 202.56   A 0.72 0.61 -62.5 0 1 153.59 201.27   Q 154.02 201.04 155.12 201.10   A 0.31 0.30 -63.9 0 1 155.30 201.63   Q 154.44 202.42 153.89 202.56   Z"
     id="path126" />
  <path
     fill="#251f1d"
     d="   M 181.13 201.84   A 0.42 0.42 0.0 0 1 181.33 201.11   Q 182.79 200.81 183.21 202.07   A 0.43 0.43 0.0 0 1 182.75 202.63   Q 181.90 202.53 181.13 201.84   Z"
     id="path127" />
  <path
     fill="#fefefe"
     d="   M 153.48 216.63   Q 155.72 213.80 155.46 210.80   A 0.64 0.64 0.0 0 1 155.96 210.12   C 158.20 209.62 161.16 207.28 164.69 208.63   Q 167.71 209.79 170.96 208.98   Q 172.88 208.50 174.74 209.05   Q 178.13 210.06 181.45 210.84   A 0.49 0.47 3.2 0 1 181.81 211.22   L 182.90 217.22   A 0.21 0.20 88.9 0 1 182.67 217.46   Q 177.91 216.83 174.80 219.39   Q 172.06 221.65 171.18 221.84   C 166.84 222.80 164.57 222.38 161.11 219.46   Q 158.47 217.23 153.84 217.36   A 0.45 0.45 0.0 0 1 153.48 216.63   Z"
     id="path128" />
  <path
     fill="#fefefe"
     d="   M 166.43 260.05   A 0.29 0.28 69.9 0 0 165.96 259.83   Q 160.69 264.29 155.22 261.71   C 148.44 258.50 147.71 247.57 152.01 242.16   C 156.71 236.24 167.89 237.51 169.53 245.55   A 0.55 0.55 0.0 0 1 168.99 246.21   L 166.27 246.21   A 1.11 1.10 -18.8 0 1 165.40 245.79   L 163.79 243.75   A 2.49 2.41 -4.7 0 0 163.01 243.11   C 153.00 237.99 150.10 259.01 160.49 258.39   Q 164.43 258.16 165.39 254.51   A 0.76 0.76 0.0 0 0 164.66 253.56   L 161.59 253.56   A 1.05 1.05 0.0 0 1 160.54 252.51   L 160.54 250.59   A 0.98 0.97 -0.0 0 1 161.52 249.62   L 169.17 249.62   A 0.62 0.61 -0.0 0 1 169.79 250.23   L 169.79 261.38   A 0.55 0.55 0.0 0 1 169.24 261.93   L 167.21 261.93   A 0.78 0.77 -0.0 0 1 166.43 261.16   L 166.43 260.05   Z"
     id="path129" />
  <path
     fill="#fefefe"
     d="   M 130.55 238.97   Q 134.90 238.98 138.78 239.04   A 0.77 0.77 0.0 0 1 139.53 239.81   L 139.53 242.43   A 0.71 0.70 -0.0 0 1 138.82 243.13   L 133.69 243.13   A 0.78 0.78 0.0 0 0 132.91 243.91   L 132.91 261.40   A 0.59 0.59 0.0 0 1 132.35 261.99   Q 131.42 262.03 130.63 262.03   Q 129.85 262.03 128.92 262.00   A 0.59 0.59 0.0 0 1 128.35 261.42   L 128.22 243.93   A 0.78 0.78 0.0 0 0 127.43 243.15   L 122.30 243.19   A 0.71 0.70 -0.4 0 1 121.59 242.50   L 121.57 239.88   A 0.77 0.77 0.0 0 1 122.32 239.11   Q 126.20 239.01 130.55 238.97   Z"
     id="path130" />
  <rect
     fill="#fefefe"
     x="-2.30"
     y="-11.46"
     transform="translate(143.86,250.51) rotate(0.1)"
     width="4.60"
     height="22.92"
     rx="0.67"
     id="rect130" />
  <path
     fill="#fefefe"
     d="   M 189.74 239.76   L 189.74 242.39   A 0.71 0.71 0.0 0 1 189.03 243.10   L 178.71 243.10   A 0.71 0.71 0.0 0 0 178.00 243.81   L 178.00 247.29   A 0.71 0.71 0.0 0 0 178.71 248.00   L 188.03 248.00   A 0.71 0.71 0.0 0 1 188.74 248.71   L 188.74 251.25   A 0.71 0.71 0.0 0 1 188.03 251.96   L 178.70 251.96   A 0.71 0.71 0.0 0 0 177.99 252.67   L 177.99 257.20   A 0.71 0.71 0.0 0 0 178.70 257.91   L 189.43 257.91   A 0.71 0.71 0.0 0 1 190.14 258.62   L 190.14 261.30   A 0.71 0.71 0.0 0 1 189.43 262.01   L 174.28 262.01   A 0.71 0.71 0.0 0 1 173.57 261.30   L 173.57 239.76   A 0.71 0.71 0.0 0 1 174.28 239.05   L 189.03 239.05   A 0.71 0.71 0.0 0 1 189.74 239.76   Z"
     id="path131" />
  <path
     fill="#fefefe"
     d="   M 210.94 261.96   L 206.77 261.96   A 0.34 0.34 0.0 0 1 206.43 261.65   L 205.68 255.15   A 2.44 2.43 -3.2 0 0 203.26 252.99   L 199.84 252.99   A 1.53 1.53 0.0 0 0 198.31 254.52   L 198.31 261.24   A 0.60 0.60 0.0 0 1 197.78 261.84   L 194.61 262.20   A 0.79 0.79 0.0 0 1 193.73 261.41   L 193.73 239.73   A 0.64 0.63 88.1 0 1 194.32 239.09   Q 196.26 238.94 204.76 239.15   C 211.25 239.32 213.42 246.85 208.74 250.58   A 0.65 0.65 0.0 0 0 208.82 251.65   L 209.21 251.88   A 2.07 2.06 11.7 0 1 210.23 253.43   L 211.17 261.70   A 0.23 0.23 0.0 0 1 210.94 261.96   Z   M 198.28 243.52   L 198.32 248.74   A 0.58 0.58 0.0 0 0 198.90 249.31   L 203.55 249.28   A 3.11 2.89 -0.4 0 0 206.64 246.37   L 206.64 245.77   A 3.11 2.89 -0.4 0 0 203.51 242.90   L 198.86 242.94   A 0.58 0.58 0.0 0 0 198.28 243.52   Z"
     id="path132" />
  <path
     fill="#f48c2b"
     d="   M 198.28 243.52   A 0.58 0.58 0.0 0 1 198.86 242.94   L 203.51 242.90   A 3.11 2.89 -0.4 0 1 206.64 245.77   L 206.64 246.37   A 3.11 2.89 -0.4 0 1 203.55 249.28   L 198.90 249.31   A 0.58 0.58 0.0 0 1 198.32 248.74   L 198.28 243.52   Z"
     id="path133" />
  <path
     fill="#fde302"
     d="   M 156.82 293.78   A 0.52 0.52 0.0 0 1 156.01 294.12   Q 149.45 289.50 152.73 282.83   A 2.14 2.08 -6.8 0 1 153.32 282.10   Q 156.39 279.68 160.41 280.57   A 0.95 0.95 0.0 0 0 161.45 280.12   L 167.78 269.15   A 0.50 0.49 46.9 0 1 168.65 269.18   L 174.46 280.83   A 0.51 0.50 -23.2 0 0 175.09 281.08   C 181.33 278.67 185.32 283.86 184.18 289.54   C 183.70 291.92 181.29 293.80 179.34 294.89   A 0.41 0.41 0.0 0 1 178.73 294.56   Q 178.67 293.61 178.27 291.77   C 177.41 287.72 171.80 290.81 172.76 294.59   Q 173.04 295.72 172.63 297.25   A 0.72 0.72 0.0 0 0 173.87 297.91   L 175.03 296.56   A 0.68 0.67 -52.3 0 1 175.93 296.44   C 180.83 299.87 176.84 305.64 171.81 302.70   A 0.68 0.68 0.0 0 0 170.96 302.84   L 168.41 305.81   A 0.83 0.82 -47.3 0 1 167.20 305.86   Q 165.55 304.21 164.94 302.78   A 0.75 0.75 0.0 0 0 164.14 302.34   Q 164.12 302.34 162.18 302.94   C 160.55 303.44 157.66 302.77 157.34 300.70   Q 156.92 298.09 159.32 296.22   A 0.71 0.70 58.1 0 1 160.39 296.47   Q 160.84 297.39 161.48 298.00   A 0.90 0.90 0.0 0 0 162.90 296.95   L 162.42 296.00   A 1.10 1.09 49.9 0 1 162.51 294.88   Q 164.10 292.69 161.65 290.36   Q 160.64 289.40 159.44 289.46   C 157.61 289.54 157.06 292.29 156.82 293.78   Z"
     id="path134" />
</svg>
