<?xml version="1.0" encoding="UTF-8" standalone="no"?>
<svg
   version="1.1"
   viewBox="0.00 0.00 200.00 242.00"
   id="svg18"
   sodipodi:docname="webelos-rank.svg"
   inkscape:version="1.4.3 (0d15f75042, 2025-12-25)"
   xmlns:inkscape="http://www.inkscape.org/namespaces/inkscape"
   xmlns:sodipodi="http://sodipodi.sourceforge.net/DTD/sodipodi-0.dtd"
   xmlns="http://www.w3.org/2000/svg"
   xmlns:svg="http://www.w3.org/2000/svg">
  <defs
     id="defs18" />
  <sodipodi:namedview
     id="namedview18"
     pagecolor="#ffffff"
     bordercolor="#000000"
     borderopacity="0.25"
     inkscape:showpageshadow="2"
     inkscape:pageopacity="0.0"
     inkscape:pagecheckerboard="0"
     inkscape:deskcolor="#d1d1d1"
     inkscape:zoom="0.47073465"
     inkscape:cx="179.50665"
     inkscape:cy="279.35059"
     inkscape:window-width="990"
     inkscape:window-height="568"
     inkscape:window-x="0"
     inkscape:window-y="0"
     inkscape:window-maximized="1"
     inkscape:current-layer="svg18" />
  <g
     stroke-width="2.00"
     fill="none"
     stroke-linecap="butt"
     id="g10">
    <path
       stroke="#4a3529"
       vector-effect="non-scaling-stroke"
       d="   M 100.0300 1.6900   A 119.30 98.38 -90.0 0 0 1.6500 120.9900   A 119.30 98.38 -90.0 0 0 100.0300 240.2900   A 119.30 98.38 -90.0 0 0 198.4100 120.9900   A 119.30 98.38 -90.0 0 0 100.0300 1.6900"
       id="path1" />
    <path
       stroke="#b28c6a"
       vector-effect="non-scaling-stroke"
       d="   M 100.1515 11.3202   A 109.70 88.72 -89.9 0 0 11.2401 120.8652   A 109.70 88.72 -89.9 0 0 99.7685 230.7198   A 109.70 88.72 -89.9 0 0 188.6799 121.1748   A 109.70 88.72 -89.9 0 0 100.1515 11.3202"
       id="path2" />
    <path
       stroke="#e4cd42"
       vector-effect="non-scaling-stroke"
       d="   M 179.98 120.01   A 0.94 0.94 0.0 0 0 179.98 118.69   L 100.63 39.35   A 0.94 0.94 0.0 0 0 99.31 39.35   L 19.96 118.70   A 0.94 0.94 0.0 0 0 19.96 120.02   L 99.31 199.36   A 0.94 0.94 0.0 0 0 100.63 199.36   L 179.98 120.01"
       id="path3" />
    <path
       stroke="#e4cd42"
       vector-effect="non-scaling-stroke"
       d="   M 174.1360 119.9820   A 0.71 0.71 0.0 0 0 174.1360 118.9780   L 100.5120 45.3540   A 0.71 0.71 0.0 0 0 99.5080 45.3540   L 25.8840 118.9780   A 0.71 0.71 0.0 0 0 25.8840 119.9820   L 99.5080 193.6060   A 0.71 0.71 0.0 0 0 100.5120 193.6060   L 174.1360 119.9820"
       id="path4" />
    <path
       stroke="#8299a5"
       vector-effect="non-scaling-stroke"
       d="   M 79.31 110.63   Q 75.87 106.74 71.92 104.57   Q 60.13 98.09 51.23 105.33   C 45.84 109.72 43.29 116.66 44.17 123.39   C 45.41 132.95 54.23 139.64 63.70 140.44   A 0.70 0.70 0.0 0 0 64.38 139.41   C 63.04 136.84 60.77 132.21 65.44 131.03   A 2.38 2.37 42.6 0 1 66.45 130.99   C 72.32 131.98 77.34 140.51 79.29 145.72   Q 81.91 152.71 83.88 161.82   Q 85.30 168.40 88.69 174.44"
       id="path5" />
    <path
       stroke="#e4cd42"
       vector-effect="non-scaling-stroke"
       d="   M 88.69 174.44   Q 88.45 175.12 88.93 176.41   C 91.12 182.36 95.19 186.44 99.43 190.68   A 0.76 0.76 0.0 0 0 100.46 190.73   Q 108.83 183.67 112.15 174.98"
       id="path6" />
    <path
       stroke="#8299a5"
       vector-effect="non-scaling-stroke"
       d="   M 112.15 174.98   Q 113.27 172.09 114.29 169.54   Q 115.58 166.33 116.18 164.03   C 119.17 152.57 121.60 141.37 130.10 133.19   C 132.24 131.13 136.75 129.45 138.23 133.28   C 138.98 135.23 137.82 137.10 136.70 139.62   A 0.60 0.60 0.0 0 0 137.30 140.46   C 148.24 139.54 157.63 131.11 157.06 119.48   C 156.45 107.22 145.43 98.68 133.33 102.60   Q 127.00 104.65 121.71 110.37"
       id="path7" />
    <path
       stroke="#e4cd42"
       vector-effect="non-scaling-stroke"
       d="   M 121.71 110.37   Q 121.16 106.73 120.56 102.90   Q 120.21 100.61 119.19 97.72   Q 118.45 95.61 117.86 92.52   Q 117.26 89.39 113.81 80.14   A 3.00 2.96 -58.6 0 1 113.65 79.46   Q 113.39 76.95 112.03 74.84   A 2.20 2.10 -70.3 0 1 111.75 74.21   Q 110.76 70.70 110.51 69.82   Q 109.94 67.78 108.87 65.59   Q 104.53 56.75 100.57 49.43   A 0.71 0.71 0.0 0 0 99.32 49.42   Q 83.65 78.26 79.31 110.63"
       id="path8" />
    <path
       stroke="#96b963"
       vector-effect="non-scaling-stroke"
       d="   M 121.71 110.37   C 115.18 118.25 113.08 127.50 111.28 137.27   A 0.46 0.46 0.0 0 1 110.37 137.27   Q 108.39 125.17 105.81 114.19   Q 103.72 105.28 100.94 98.35   Q 100.76 97.90 100.27 97.83   Q 99.64 97.73 99.32 98.37   Q 97.74 101.57 96.36 106.81   Q 92.05 123.16 89.43 137.30   A 0.39 0.39 0.0 0 1 88.94 137.60   Q 88.67 137.52 88.46 137.25   A 0.51 0.51 0.0 0 1 88.35 137.00   C 86.74 126.75 84.99 118.05 79.31 110.63"
       id="path9" />
    <path
       stroke="#96b963"
       vector-effect="non-scaling-stroke"
       d="   M 112.15 174.98   L 100.36 158.60   A 0.46 0.46 0.0 0 0 99.61 158.61   L 88.69 174.44"
       id="path10" />
  </g>
  <path
     fill="#946a51"
     d="   M 100.0300 1.6900   A 119.30 98.38 -90.0 0 1 198.4100 120.9900   A 119.30 98.38 -90.0 0 1 100.0300 240.2900   A 119.30 98.38 -90.0 0 1 1.6500 120.9900   A 119.30 98.38 -90.0 0 1 100.0300 1.6900   Z   M 100.1515 11.3202   A 109.70 88.72 -89.9 0 0 11.2401 120.8652   A 109.70 88.72 -89.9 0 0 99.7685 230.7198   A 109.70 88.72 -89.9 0 0 188.6799 121.1748   A 109.70 88.72 -89.9 0 0 100.1515 11.3202   Z"
     id="path12" />
  <path
     fill="#d0ad83"
     d="   M 100.1515 11.3202   A 109.70 88.72 -89.9 0 1 188.6799 121.1748   A 109.70 88.72 -89.9 0 1 99.7685 230.7198   A 109.70 88.72 -89.9 0 1 11.2401 120.8652   A 109.70 88.72 -89.9 0 1 100.1515 11.3202   Z   M 179.98 120.01   A 0.94 0.94 0.0 0 0 179.98 118.69   L 100.63 39.35   A 0.94 0.94 0.0 0 0 99.31 39.35   L 19.96 118.70   A 0.94 0.94 0.0 0 0 19.96 120.02   L 99.31 199.36   A 0.94 0.94 0.0 0 0 100.63 199.36   L 179.98 120.01   Z"
     id="path13" />
  <path
     fill="#f8ec00"
     d="   M 179.98 120.01   L 100.63 199.36   A 0.94 0.94 0.0 0 1 99.31 199.36   L 19.96 120.02   A 0.94 0.94 0.0 0 1 19.96 118.70   L 99.31 39.35   A 0.94 0.94 0.0 0 1 100.63 39.35   L 179.98 118.69   A 0.94 0.94 0.0 0 1 179.98 120.01   Z   M 174.1360 119.9820   A 0.71 0.71 0.0 0 0 174.1360 118.9780   L 100.5120 45.3540   A 0.71 0.71 0.0 0 0 99.5080 45.3540   L 25.8840 118.9780   A 0.71 0.71 0.0 0 0 25.8840 119.9820   L 99.5080 193.6060   A 0.71 0.71 0.0 0 0 100.5120 193.6060   L 174.1360 119.9820   Z"
     id="path14" />
  <path
     fill="#d0ad83"
     d="   M 100.5120 193.6060   A 0.71 0.71 0.0 0 1 99.5080 193.6060   L 25.8840 119.9820   A 0.71 0.71 0.0 0 1 25.8840 118.9780   L 99.5080 45.3540   A 0.71 0.71 0.0 0 1 100.5120 45.3540   L 174.1360 118.9780   A 0.71 0.71 0.0 0 1 174.1360 119.9820   L 100.5120 193.6060   Z   M 79.31 110.63   Q 75.87 106.74 71.92 104.57   Q 60.13 98.09 51.23 105.33   C 45.84 109.72 43.29 116.66 44.17 123.39   C 45.41 132.95 54.23 139.64 63.70 140.44   A 0.70 0.70 0.0 0 0 64.38 139.41   C 63.04 136.84 60.77 132.21 65.44 131.03   A 2.38 2.37 42.6 0 1 66.45 130.99   C 72.32 131.98 77.34 140.51 79.29 145.72   Q 81.91 152.71 83.88 161.82   Q 85.30 168.40 88.69 174.44   Q 88.45 175.12 88.93 176.41   C 91.12 182.36 95.19 186.44 99.43 190.68   A 0.76 0.76 0.0 0 0 100.46 190.73   Q 108.83 183.67 112.15 174.98   Q 113.27 172.09 114.29 169.54   Q 115.58 166.33 116.18 164.03   C 119.17 152.57 121.60 141.37 130.10 133.19   C 132.24 131.13 136.75 129.45 138.23 133.28   C 138.98 135.23 137.82 137.10 136.70 139.62   A 0.60 0.60 0.0 0 0 137.30 140.46   C 148.24 139.54 157.63 131.11 157.06 119.48   C 156.45 107.22 145.43 98.68 133.33 102.60   Q 127.00 104.65 121.71 110.37   Q 121.16 106.73 120.56 102.90   Q 120.21 100.61 119.19 97.72   Q 118.45 95.61 117.86 92.52   Q 117.26 89.39 113.81 80.14   A 3.00 2.96 -58.6 0 1 113.65 79.46   Q 113.39 76.95 112.03 74.84   A 2.20 2.10 -70.3 0 1 111.75 74.21   Q 110.76 70.70 110.51 69.82   Q 109.94 67.78 108.87 65.59   Q 104.53 56.75 100.57 49.43   A 0.71 0.71 0.0 0 0 99.32 49.42   Q 83.65 78.26 79.31 110.63   Z"
     id="path15" />
  <path
     fill="#f8ec00"
     d="   M 121.71 110.37   C 115.18 118.25 113.08 127.50 111.28 137.27   A 0.46 0.46 0.0 0 1 110.37 137.27   Q 108.39 125.17 105.81 114.19   Q 103.72 105.28 100.94 98.35   Q 100.76 97.90 100.27 97.83   Q 99.64 97.73 99.32 98.37   Q 97.74 101.57 96.36 106.81   Q 92.05 123.16 89.43 137.30   A 0.39 0.39 0.0 0 1 88.94 137.60   Q 88.67 137.52 88.46 137.25   A 0.51 0.51 0.0 0 1 88.35 137.00   C 86.74 126.75 84.99 118.05 79.31 110.63   Q 83.65 78.26 99.32 49.42   A 0.71 0.71 0.0 0 1 100.57 49.43   Q 104.53 56.75 108.87 65.59   Q 109.94 67.78 110.51 69.82   Q 110.76 70.70 111.75 74.21   A 2.20 2.10 -70.3 0 0 112.03 74.84   Q 113.39 76.95 113.65 79.46   A 3.00 2.96 -58.6 0 0 113.81 80.14   Q 117.26 89.39 117.86 92.52   Q 118.45 95.61 119.19 97.72   Q 120.21 100.61 120.56 102.90   Q 121.16 106.73 121.71 110.37   Z"
     id="path16" />
  <path
     fill="#3485c6"
     d="   M 121.71 110.37   Q 127.00 104.65 133.33 102.60   C 145.43 98.68 156.45 107.22 157.06 119.48   C 157.63 131.11 148.24 139.54 137.30 140.46   A 0.60 0.60 0.0 0 1 136.70 139.62   C 137.82 137.10 138.98 135.23 138.23 133.28   C 136.75 129.45 132.24 131.13 130.10 133.19   C 121.60 141.37 119.17 152.57 116.18 164.03   Q 115.58 166.33 114.29 169.54   Q 113.27 172.09 112.15 174.98   L 100.36 158.60   A 0.46 0.46 0.0 0 0 99.61 158.61   L 88.69 174.44   Q 85.30 168.40 83.88 161.82   Q 81.91 152.71 79.29 145.72   C 77.34 140.51 72.32 131.98 66.45 130.99   A 2.38 2.37 42.6 0 0 65.44 131.03   C 60.77 132.21 63.04 136.84 64.38 139.41   A 0.70 0.70 0.0 0 1 63.70 140.44   C 54.23 139.64 45.41 132.95 44.17 123.39   C 43.29 116.66 45.84 109.72 51.23 105.33   Q 60.13 98.09 71.92 104.57   Q 75.87 106.74 79.31 110.63   C 84.99 118.05 86.74 126.75 88.35 137.00   A 0.51 0.51 0.0 0 0 88.46 137.25   Q 88.67 137.52 88.94 137.60   A 0.39 0.39 0.0 0 0 89.43 137.30   Q 92.05 123.16 96.36 106.81   Q 97.74 101.57 99.32 98.37   Q 99.64 97.73 100.27 97.83   Q 100.76 97.90 100.94 98.35   Q 103.72 105.28 105.81 114.19   Q 108.39 125.17 110.37 137.27   A 0.46 0.46 0.0 0 0 111.28 137.27   C 113.08 127.50 115.18 118.25 121.71 110.37   Z"
     id="path17" />
  <path
     fill="#f8ec00"
     d="   M 112.15 174.98   Q 108.83 183.67 100.46 190.73   A 0.76 0.76 0.0 0 1 99.43 190.68   C 95.19 186.44 91.12 182.36 88.93 176.41   Q 88.45 175.12 88.69 174.44   L 99.61 158.61   A 0.46 0.46 0.0 0 1 100.36 158.60   L 112.15 174.98   Z"
     id="path18" />
</svg>
